<svg xmlns="http://www.w3.org/2000/svg" width="1080" height="420" viewBox="0 0 1080 420" role="img">
<rect width="100%" height="100%" fill="#fcfbf7"/>
<text x="36" y="40" font-size="24" font-family="Arial, sans-serif" fill="#1d2a2f">MpraVAE k-mer Distribution Check</text>
<text x="36" y="64" font-size="12" font-family="Arial, sans-serif" fill="#5b666b">k-mer frequency comparison between natural and generated promoters.</text>
<text x="40" y="92" font-size="13" font-family="Arial, sans-serif" fill="#33454d">All Region</text>
<rect x="40" y="110" width="300" height="250" rx="8" fill="#fffdf8" stroke="#ddd7cb"/>
<line x1="70" y1="334" x2="320" y2="334" stroke="#c8c3b7"/>
<line x1="70" y1="334" x2="70" y2="128" stroke="#c8c3b7"/>
<line x1="70" y1="334" x2="320" y2="128" stroke="#e3ded3" stroke-dasharray="4 4"/>
<circle cx="195.00" cy="141.73" r="2.2" fill="#b15a36" opacity="0.7"/>
<circle cx="105.42" cy="303.10" r="2.2" fill="#b15a36" opacity="0.7"/>
<circle cx="130.42" cy="268.77" r="2.2" fill="#b15a36" opacity="0.7"/>
<circle cx="205.42" cy="198.38" r="2.2" fill="#b15a36" opacity="0.7"/>
<circle cx="109.58" cy="316.83" r="2.2" fill="#b15a36" opacity="0.7"/>
<circle cx="99.17" cy="299.67" r="2.2" fill="#b15a36" opacity="0.7"/>
<circle cx="78.33" cy="332.28" r="2.2" fill="#b15a36" opacity="0.7"/>
<circle cx="99.17" cy="306.53" r="2.2" fill="#b15a36" opacity="0.7"/>
<circle cx="115.83" cy="304.82" r="2.2" fill="#b15a36" opacity="0.7"/>
<circle cx="84.58" cy="321.98" r="2.2" fill="#b15a36" opacity="0.7"/>
<circle cx="97.08" cy="279.07" r="2.2" fill="#b15a36" opacity="0.7"/>
<circle cx="115.83" cy="275.63" r="2.2" fill="#b15a36" opacity="0.7"/>
<circle cx="172.08" cy="291.08" r="2.2" fill="#b15a36" opacity="0.7"/>
<circle cx="105.42" cy="301.38" r="2.2" fill="#b15a36" opacity="0.7"/>
<circle cx="107.50" cy="277.35" r="2.2" fill="#b15a36" opacity="0.7"/>
<circle cx="211.67" cy="128.00" r="2.2" fill="#b15a36" opacity="0.7"/>
<circle cx="126.25" cy="308.25" r="2.2" fill="#b15a36" opacity="0.7"/>
<circle cx="86.67" cy="332.28" r="2.2" fill="#b15a36" opacity="0.7"/>
<circle cx="88.75" cy="334.00" r="2.2" fill="#b15a36" opacity="0.7"/>
<circle cx="103.33" cy="328.85" r="2.2" fill="#b15a36" opacity="0.7"/>
<circle cx="99.17" cy="306.53" r="2.2" fill="#b15a36" opacity="0.7"/>
<circle cx="78.33" cy="313.40" r="2.2" fill="#b15a36" opacity="0.7"/>
<circle cx="74.17" cy="334.00" r="2.2" fill="#b15a36" opacity="0.7"/>
<circle cx="86.67" cy="327.13" r="2.2" fill="#b15a36" opacity="0.7"/>
<circle cx="82.50" cy="334.00" r="2.2" fill="#b15a36" opacity="0.7"/>
<circle cx="72.08" cy="334.00" r="2.2" fill="#b15a36" opacity="0.7"/>
<circle cx="76.25" cy="334.00" r="2.2" fill="#b15a36" opacity="0.7"/>
<circle cx="80.42" cy="330.57" r="2.2" fill="#b15a36" opacity="0.7"/>
<circle cx="88.75" cy="323.70" r="2.2" fill="#b15a36" opacity="0.7"/>
<circle cx="86.67" cy="320.27" r="2.2" fill="#b15a36" opacity="0.7"/>
<circle cx="80.42" cy="328.85" r="2.2" fill="#b15a36" opacity="0.7"/>
<circle cx="105.42" cy="311.68" r="2.2" fill="#b15a36" opacity="0.7"/>
<circle cx="132.50" cy="301.38" r="2.2" fill="#b15a36" opacity="0.7"/>
<circle cx="80.42" cy="334.00" r="2.2" fill="#b15a36" opacity="0.7"/>
<circle cx="103.33" cy="327.13" r="2.2" fill="#b15a36" opacity="0.7"/>
<circle cx="101.25" cy="330.57" r="2.2" fill="#b15a36" opacity="0.7"/>
<circle cx="101.25" cy="325.42" r="2.2" fill="#b15a36" opacity="0.7"/>
<circle cx="74.17" cy="330.57" r="2.2" fill="#b15a36" opacity="0.7"/>
<circle cx="78.33" cy="334.00" r="2.2" fill="#b15a36" opacity="0.7"/>
<circle cx="86.67" cy="330.57" r="2.2" fill="#b15a36" opacity="0.7"/>
<circle cx="95.00" cy="304.82" r="2.2" fill="#b15a36" opacity="0.7"/>
<circle cx="82.50" cy="332.28" r="2.2" fill="#b15a36" opacity="0.7"/>
<circle cx="82.50" cy="301.38" r="2.2" fill="#b15a36" opacity="0.7"/>
<circle cx="74.17" cy="309.97" r="2.2" fill="#b15a36" opacity="0.7"/>
<circle cx="109.58" cy="297.95" r="2.2" fill="#b15a36" opacity="0.7"/>
<circle cx="76.25" cy="327.13" r="2.2" fill="#b15a36" opacity="0.7"/>
<circle cx="90.83" cy="296.23" r="2.2" fill="#b15a36" opacity="0.7"/>
<circle cx="103.33" cy="275.63" r="2.2" fill="#b15a36" opacity="0.7"/>
<circle cx="157.50" cy="299.67" r="2.2" fill="#b15a36" opacity="0.7"/>
<circle cx="109.58" cy="328.85" r="2.2" fill="#b15a36" opacity="0.7"/>
<circle cx="97.08" cy="325.42" r="2.2" fill="#b15a36" opacity="0.7"/>
<circle cx="142.92" cy="325.42" r="2.2" fill="#b15a36" opacity="0.7"/>
<circle cx="103.33" cy="296.23" r="2.2" fill="#b15a36" opacity="0.7"/>
<circle cx="86.67" cy="330.57" r="2.2" fill="#b15a36" opacity="0.7"/>
<circle cx="78.33" cy="332.28" r="2.2" fill="#b15a36" opacity="0.7"/>
<circle cx="97.08" cy="328.85" r="2.2" fill="#b15a36" opacity="0.7"/>
<circle cx="88.75" cy="294.52" r="2.2" fill="#b15a36" opacity="0.7"/>
<circle cx="95.00" cy="334.00" r="2.2" fill="#b15a36" opacity="0.7"/>
<circle cx="82.50" cy="306.53" r="2.2" fill="#b15a36" opacity="0.7"/>
<circle cx="92.92" cy="323.70" r="2.2" fill="#b15a36" opacity="0.7"/>
<circle cx="151.25" cy="213.83" r="2.2" fill="#b15a36" opacity="0.7"/>
<circle cx="111.67" cy="294.52" r="2.2" fill="#b15a36" opacity="0.7"/>
<circle cx="128.33" cy="260.18" r="2.2" fill="#b15a36" opacity="0.7"/>
<circle cx="213.75" cy="193.23" r="2.2" fill="#b15a36" opacity="0.7"/>
<circle cx="145.00" cy="272.20" r="2.2" fill="#b15a36" opacity="0.7"/>
<circle cx="90.83" cy="313.40" r="2.2" fill="#b15a36" opacity="0.7"/>
<circle cx="97.08" cy="328.85" r="2.2" fill="#b15a36" opacity="0.7"/>
<circle cx="117.92" cy="289.37" r="2.2" fill="#b15a36" opacity="0.7"/>
<circle cx="86.67" cy="328.85" r="2.2" fill="#b15a36" opacity="0.7"/>
<circle cx="82.50" cy="325.42" r="2.2" fill="#b15a36" opacity="0.7"/>
<circle cx="78.33" cy="334.00" r="2.2" fill="#b15a36" opacity="0.7"/>
<circle cx="86.67" cy="325.42" r="2.2" fill="#b15a36" opacity="0.7"/>
<circle cx="99.17" cy="332.28" r="2.2" fill="#b15a36" opacity="0.7"/>
<circle cx="78.33" cy="334.00" r="2.2" fill="#b15a36" opacity="0.7"/>
<circle cx="72.08" cy="334.00" r="2.2" fill="#b15a36" opacity="0.7"/>
<circle cx="84.58" cy="328.85" r="2.2" fill="#b15a36" opacity="0.7"/>
<circle cx="95.00" cy="328.85" r="2.2" fill="#b15a36" opacity="0.7"/>
<circle cx="90.83" cy="325.42" r="2.2" fill="#b15a36" opacity="0.7"/>
<circle cx="82.50" cy="330.57" r="2.2" fill="#b15a36" opacity="0.7"/>
<circle cx="113.75" cy="289.37" r="2.2" fill="#b15a36" opacity="0.7"/>
<circle cx="105.42" cy="294.52" r="2.2" fill="#b15a36" opacity="0.7"/>
<circle cx="78.33" cy="327.13" r="2.2" fill="#b15a36" opacity="0.7"/>
<circle cx="76.25" cy="330.57" r="2.2" fill="#b15a36" opacity="0.7"/>
<circle cx="90.83" cy="313.40" r="2.2" fill="#b15a36" opacity="0.7"/>
<circle cx="84.58" cy="311.68" r="2.2" fill="#b15a36" opacity="0.7"/>
<circle cx="80.42" cy="321.98" r="2.2" fill="#b15a36" opacity="0.7"/>
<circle cx="80.42" cy="334.00" r="2.2" fill="#b15a36" opacity="0.7"/>
<circle cx="78.33" cy="315.12" r="2.2" fill="#b15a36" opacity="0.7"/>
<circle cx="76.25" cy="334.00" r="2.2" fill="#b15a36" opacity="0.7"/>
<circle cx="80.42" cy="334.00" r="2.2" fill="#b15a36" opacity="0.7"/>
<circle cx="72.08" cy="334.00" r="2.2" fill="#b15a36" opacity="0.7"/>
<circle cx="78.33" cy="334.00" r="2.2" fill="#b15a36" opacity="0.7"/>
<circle cx="84.58" cy="332.28" r="2.2" fill="#b15a36" opacity="0.7"/>
<circle cx="90.83" cy="321.98" r="2.2" fill="#b15a36" opacity="0.7"/>
<circle cx="74.17" cy="330.57" r="2.2" fill="#b15a36" opacity="0.7"/>
<circle cx="90.83" cy="306.53" r="2.2" fill="#b15a36" opacity="0.7"/>
<circle cx="78.33" cy="332.28" r="2.2" fill="#b15a36" opacity="0.7"/>
<circle cx="76.25" cy="334.00" r="2.2" fill="#b15a36" opacity="0.7"/>
<circle cx="86.67" cy="334.00" r="2.2" fill="#b15a36" opacity="0.7"/>
<circle cx="82.50" cy="332.28" r="2.2" fill="#b15a36" opacity="0.7"/>
<circle cx="74.17" cy="334.00" r="2.2" fill="#b15a36" opacity="0.7"/>
<circle cx="78.33" cy="334.00" r="2.2" fill="#b15a36" opacity="0.7"/>
<circle cx="74.17" cy="334.00" r="2.2" fill="#b15a36" opacity="0.7"/>
<circle cx="76.25" cy="334.00" r="2.2" fill="#b15a36" opacity="0.7"/>
<circle cx="76.25" cy="334.00" r="2.2" fill="#b15a36" opacity="0.7"/>
<circle cx="76.25" cy="334.00" r="2.2" fill="#b15a36" opacity="0.7"/>
<circle cx="76.25" cy="334.00" r="2.2" fill="#b15a36" opacity="0.7"/>
<circle cx="76.25" cy="334.00" r="2.2" fill="#b15a36" opacity="0.7"/>
<circle cx="84.58" cy="334.00" r="2.2" fill="#b15a36" opacity="0.7"/>
<circle cx="78.33" cy="334.00" r="2.2" fill="#b15a36" opacity="0.7"/>
<circle cx="78.33" cy="334.00" r="2.2" fill="#b15a36" opacity="0.7"/>
<circle cx="84.58" cy="328.85" r="2.2" fill="#b15a36" opacity="0.7"/>
<circle cx="99.17" cy="320.27" r="2.2" fill="#b15a36" opacity="0.7"/>
<circle cx="74.17" cy="332.28" r="2.2" fill="#b15a36" opacity="0.7"/>
<circle cx="78.33" cy="332.28" r="2.2" fill="#b15a36" opacity="0.7"/>
<circle cx="99.17" cy="334.00" r="2.2" fill="#b15a36" opacity="0.7"/>
<circle cx="95.00" cy="316.83" r="2.2" fill="#b15a36" opacity="0.7"/>
<circle cx="86.67" cy="323.70" r="2.2" fill="#b15a36" opacity="0.7"/>
<circle cx="76.25" cy="334.00" r="2.2" fill="#b15a36" opacity="0.7"/>
<circle cx="109.58" cy="325.42" r="2.2" fill="#b15a36" opacity="0.7"/>
<circle cx="88.75" cy="323.70" r="2.2" fill="#b15a36" opacity="0.7"/>
<circle cx="84.58" cy="334.00" r="2.2" fill="#b15a36" opacity="0.7"/>
<circle cx="72.08" cy="332.28" r="2.2" fill="#b15a36" opacity="0.7"/>
<circle cx="86.67" cy="334.00" r="2.2" fill="#b15a36" opacity="0.7"/>
<circle cx="84.58" cy="316.83" r="2.2" fill="#b15a36" opacity="0.7"/>
<circle cx="99.17" cy="320.27" r="2.2" fill="#b15a36" opacity="0.7"/>
<circle cx="92.92" cy="328.85" r="2.2" fill="#b15a36" opacity="0.7"/>
<circle cx="136.67" cy="289.37" r="2.2" fill="#b15a36" opacity="0.7"/>
<circle cx="132.50" cy="265.33" r="2.2" fill="#b15a36" opacity="0.7"/>
<circle cx="90.83" cy="321.98" r="2.2" fill="#b15a36" opacity="0.7"/>
<circle cx="88.75" cy="289.37" r="2.2" fill="#b15a36" opacity="0.7"/>
<circle cx="97.08" cy="268.77" r="2.2" fill="#b15a36" opacity="0.7"/>
<circle cx="97.08" cy="330.57" r="2.2" fill="#b15a36" opacity="0.7"/>
<circle cx="74.17" cy="330.57" r="2.2" fill="#b15a36" opacity="0.7"/>
<circle cx="76.25" cy="332.28" r="2.2" fill="#b15a36" opacity="0.7"/>
<circle cx="78.33" cy="328.85" r="2.2" fill="#b15a36" opacity="0.7"/>
<circle cx="97.08" cy="330.57" r="2.2" fill="#b15a36" opacity="0.7"/>
<circle cx="92.92" cy="332.28" r="2.2" fill="#b15a36" opacity="0.7"/>
<circle cx="84.58" cy="315.12" r="2.2" fill="#b15a36" opacity="0.7"/>
<circle cx="84.58" cy="287.65" r="2.2" fill="#b15a36" opacity="0.7"/>
<circle cx="103.33" cy="332.28" r="2.2" fill="#b15a36" opacity="0.7"/>
<circle cx="82.50" cy="334.00" r="2.2" fill="#b15a36" opacity="0.7"/>
<circle cx="82.50" cy="320.27" r="2.2" fill="#b15a36" opacity="0.7"/>
<circle cx="107.50" cy="260.18" r="2.2" fill="#b15a36" opacity="0.7"/>
<circle cx="103.33" cy="323.70" r="2.2" fill="#b15a36" opacity="0.7"/>
<circle cx="74.17" cy="334.00" r="2.2" fill="#b15a36" opacity="0.7"/>
<circle cx="82.50" cy="332.28" r="2.2" fill="#b15a36" opacity="0.7"/>
<circle cx="86.67" cy="332.28" r="2.2" fill="#b15a36" opacity="0.7"/>
<circle cx="78.33" cy="332.28" r="2.2" fill="#b15a36" opacity="0.7"/>
<circle cx="80.42" cy="328.85" r="2.2" fill="#b15a36" opacity="0.7"/>
<circle cx="78.33" cy="334.00" r="2.2" fill="#b15a36" opacity="0.7"/>
<circle cx="74.17" cy="332.28" r="2.2" fill="#b15a36" opacity="0.7"/>
<circle cx="74.17" cy="334.00" r="2.2" fill="#b15a36" opacity="0.7"/>
<circle cx="78.33" cy="334.00" r="2.2" fill="#b15a36" opacity="0.7"/>
<circle cx="80.42" cy="334.00" r="2.2" fill="#b15a36" opacity="0.7"/>
<circle cx="84.58" cy="334.00" r="2.2" fill="#b15a36" opacity="0.7"/>
<circle cx="86.67" cy="328.85" r="2.2" fill="#b15a36" opacity="0.7"/>
<circle cx="84.58" cy="334.00" r="2.2" fill="#b15a36" opacity="0.7"/>
<circle cx="101.25" cy="334.00" r="2.2" fill="#b15a36" opacity="0.7"/>
<circle cx="95.00" cy="275.63" r="2.2" fill="#b15a36" opacity="0.7"/>
<circle cx="84.58" cy="328.85" r="2.2" fill="#b15a36" opacity="0.7"/>
<circle cx="80.42" cy="301.38" r="2.2" fill="#b15a36" opacity="0.7"/>
<circle cx="86.67" cy="304.82" r="2.2" fill="#b15a36" opacity="0.7"/>
<circle cx="80.42" cy="332.28" r="2.2" fill="#b15a36" opacity="0.7"/>
<circle cx="78.33" cy="330.57" r="2.2" fill="#b15a36" opacity="0.7"/>
<circle cx="74.17" cy="334.00" r="2.2" fill="#b15a36" opacity="0.7"/>
<circle cx="76.25" cy="334.00" r="2.2" fill="#b15a36" opacity="0.7"/>
<circle cx="88.75" cy="291.08" r="2.2" fill="#b15a36" opacity="0.7"/>
<circle cx="80.42" cy="330.57" r="2.2" fill="#b15a36" opacity="0.7"/>
<circle cx="86.67" cy="270.48" r="2.2" fill="#b15a36" opacity="0.7"/>
<circle cx="76.25" cy="294.52" r="2.2" fill="#b15a36" opacity="0.7"/>
<circle cx="82.50" cy="327.13" r="2.2" fill="#b15a36" opacity="0.7"/>
<circle cx="80.42" cy="330.57" r="2.2" fill="#b15a36" opacity="0.7"/>
<circle cx="76.25" cy="299.67" r="2.2" fill="#b15a36" opacity="0.7"/>
<circle cx="82.50" cy="291.08" r="2.2" fill="#b15a36" opacity="0.7"/>
<circle cx="107.50" cy="299.67" r="2.2" fill="#b15a36" opacity="0.7"/>
<circle cx="86.67" cy="332.28" r="2.2" fill="#b15a36" opacity="0.7"/>
<circle cx="88.75" cy="325.42" r="2.2" fill="#b15a36" opacity="0.7"/>
<circle cx="92.92" cy="328.85" r="2.2" fill="#b15a36" opacity="0.7"/>
<circle cx="80.42" cy="325.42" r="2.2" fill="#b15a36" opacity="0.7"/>
<circle cx="76.25" cy="332.28" r="2.2" fill="#b15a36" opacity="0.7"/>
<circle cx="80.42" cy="334.00" r="2.2" fill="#b15a36" opacity="0.7"/>
<circle cx="80.42" cy="332.28" r="2.2" fill="#b15a36" opacity="0.7"/>
<circle cx="80.42" cy="297.95" r="2.2" fill="#b15a36" opacity="0.7"/>
<circle cx="86.67" cy="332.28" r="2.2" fill="#b15a36" opacity="0.7"/>
<circle cx="80.42" cy="297.95" r="2.2" fill="#b15a36" opacity="0.7"/>
<circle cx="92.92" cy="327.13" r="2.2" fill="#b15a36" opacity="0.7"/>
<circle cx="90.83" cy="304.82" r="2.2" fill="#b15a36" opacity="0.7"/>
<circle cx="90.83" cy="325.42" r="2.2" fill="#b15a36" opacity="0.7"/>
<circle cx="92.92" cy="291.08" r="2.2" fill="#b15a36" opacity="0.7"/>
<circle cx="113.75" cy="280.78" r="2.2" fill="#b15a36" opacity="0.7"/>
<circle cx="165.83" cy="232.72" r="2.2" fill="#b15a36" opacity="0.7"/>
<circle cx="97.08" cy="316.83" r="2.2" fill="#b15a36" opacity="0.7"/>
<circle cx="97.08" cy="291.08" r="2.2" fill="#b15a36" opacity="0.7"/>
<circle cx="172.08" cy="243.02" r="2.2" fill="#b15a36" opacity="0.7"/>
<circle cx="111.67" cy="327.13" r="2.2" fill="#b15a36" opacity="0.7"/>
<circle cx="82.50" cy="327.13" r="2.2" fill="#b15a36" opacity="0.7"/>
<circle cx="78.33" cy="334.00" r="2.2" fill="#b15a36" opacity="0.7"/>
<circle cx="97.08" cy="325.42" r="2.2" fill="#b15a36" opacity="0.7"/>
<circle cx="103.33" cy="325.42" r="2.2" fill="#b15a36" opacity="0.7"/>
<circle cx="84.58" cy="332.28" r="2.2" fill="#b15a36" opacity="0.7"/>
<circle cx="80.42" cy="321.98" r="2.2" fill="#b15a36" opacity="0.7"/>
<circle cx="95.00" cy="306.53" r="2.2" fill="#b15a36" opacity="0.7"/>
<circle cx="140.83" cy="327.13" r="2.2" fill="#b15a36" opacity="0.7"/>
<circle cx="86.67" cy="327.13" r="2.2" fill="#b15a36" opacity="0.7"/>
<circle cx="88.75" cy="330.57" r="2.2" fill="#b15a36" opacity="0.7"/>
<circle cx="167.92" cy="287.65" r="2.2" fill="#b15a36" opacity="0.7"/>
<circle cx="117.92" cy="277.35" r="2.2" fill="#b15a36" opacity="0.7"/>
<circle cx="95.00" cy="320.27" r="2.2" fill="#b15a36" opacity="0.7"/>
<circle cx="86.67" cy="332.28" r="2.2" fill="#b15a36" opacity="0.7"/>
<circle cx="101.25" cy="299.67" r="2.2" fill="#b15a36" opacity="0.7"/>
<circle cx="90.83" cy="316.83" r="2.2" fill="#b15a36" opacity="0.7"/>
<circle cx="82.50" cy="320.27" r="2.2" fill="#b15a36" opacity="0.7"/>
<circle cx="74.17" cy="334.00" r="2.2" fill="#b15a36" opacity="0.7"/>
<circle cx="101.25" cy="316.83" r="2.2" fill="#b15a36" opacity="0.7"/>
<circle cx="90.83" cy="332.28" r="2.2" fill="#b15a36" opacity="0.7"/>
<circle cx="80.42" cy="334.00" r="2.2" fill="#b15a36" opacity="0.7"/>
<circle cx="78.33" cy="334.00" r="2.2" fill="#b15a36" opacity="0.7"/>
<circle cx="86.67" cy="332.28" r="2.2" fill="#b15a36" opacity="0.7"/>
<circle cx="92.92" cy="328.85" r="2.2" fill="#b15a36" opacity="0.7"/>
<circle cx="105.42" cy="328.85" r="2.2" fill="#b15a36" opacity="0.7"/>
<circle cx="92.92" cy="330.57" r="2.2" fill="#b15a36" opacity="0.7"/>
<circle cx="115.83" cy="303.10" r="2.2" fill="#b15a36" opacity="0.7"/>
<circle cx="105.42" cy="231.00" r="2.2" fill="#b15a36" opacity="0.7"/>
<circle cx="84.58" cy="325.42" r="2.2" fill="#b15a36" opacity="0.7"/>
<circle cx="88.75" cy="301.38" r="2.2" fill="#b15a36" opacity="0.7"/>
<circle cx="105.42" cy="279.07" r="2.2" fill="#b15a36" opacity="0.7"/>
<circle cx="92.92" cy="330.57" r="2.2" fill="#b15a36" opacity="0.7"/>
<circle cx="80.42" cy="332.28" r="2.2" fill="#b15a36" opacity="0.7"/>
<circle cx="76.25" cy="334.00" r="2.2" fill="#b15a36" opacity="0.7"/>
<circle cx="115.83" cy="332.28" r="2.2" fill="#b15a36" opacity="0.7"/>
<circle cx="84.58" cy="280.78" r="2.2" fill="#b15a36" opacity="0.7"/>
<circle cx="86.67" cy="275.63" r="2.2" fill="#b15a36" opacity="0.7"/>
<circle cx="95.00" cy="309.97" r="2.2" fill="#b15a36" opacity="0.7"/>
<circle cx="97.08" cy="328.85" r="2.2" fill="#b15a36" opacity="0.7"/>
<circle cx="82.50" cy="332.28" r="2.2" fill="#b15a36" opacity="0.7"/>
<circle cx="95.00" cy="321.98" r="2.2" fill="#b15a36" opacity="0.7"/>
<circle cx="113.75" cy="306.53" r="2.2" fill="#b15a36" opacity="0.7"/>
<circle cx="167.92" cy="162.33" r="2.2" fill="#b15a36" opacity="0.7"/>
<circle cx="99.17" cy="320.27" r="2.2" fill="#b15a36" opacity="0.7"/>
<circle cx="99.17" cy="303.10" r="2.2" fill="#b15a36" opacity="0.7"/>
<circle cx="147.08" cy="284.22" r="2.2" fill="#b15a36" opacity="0.7"/>
<circle cx="122.08" cy="291.08" r="2.2" fill="#b15a36" opacity="0.7"/>
<circle cx="99.17" cy="301.38" r="2.2" fill="#b15a36" opacity="0.7"/>
<circle cx="101.25" cy="332.28" r="2.2" fill="#b15a36" opacity="0.7"/>
<circle cx="120.00" cy="304.82" r="2.2" fill="#b15a36" opacity="0.7"/>
<circle cx="126.25" cy="222.42" r="2.2" fill="#b15a36" opacity="0.7"/>
<circle cx="99.17" cy="328.85" r="2.2" fill="#b15a36" opacity="0.7"/>
<circle cx="101.25" cy="258.47" r="2.2" fill="#b15a36" opacity="0.7"/>
<circle cx="115.83" cy="304.82" r="2.2" fill="#b15a36" opacity="0.7"/>
<circle cx="188.75" cy="232.72" r="2.2" fill="#b15a36" opacity="0.7"/>
<circle cx="140.83" cy="287.65" r="2.2" fill="#b15a36" opacity="0.7"/>
<circle cx="130.42" cy="237.87" r="2.2" fill="#b15a36" opacity="0.7"/>
<circle cx="274.17" cy="150.32" r="2.2" fill="#b15a36" opacity="0.7"/>
<text x="328" y="130" text-anchor="end" font-size="11" font-family="Arial, sans-serif" fill="#6a7478">r 0.802</text>
<text x="328" y="146" text-anchor="end" font-size="11" font-family="Arial, sans-serif" fill="#6a7478">n 254</text>
<text x="370" y="92" font-size="13" font-family="Arial, sans-serif" fill="#33454d">Proximal 20 bp</text>
<rect x="370" y="110" width="300" height="250" rx="8" fill="#fffdf8" stroke="#ddd7cb"/>
<line x1="400" y1="334" x2="650" y2="334" stroke="#c8c3b7"/>
<line x1="400" y1="334" x2="400" y2="128" stroke="#c8c3b7"/>
<line x1="400" y1="334" x2="650" y2="128" stroke="#e3ded3" stroke-dasharray="4 4"/>
<circle cx="492.11" cy="279.79" r="2.2" fill="#b15a36" opacity="0.7"/>
<circle cx="413.16" cy="312.32" r="2.2" fill="#b15a36" opacity="0.7"/>
<circle cx="413.16" cy="334.00" r="2.2" fill="#b15a36" opacity="0.7"/>
<circle cx="531.58" cy="236.42" r="2.2" fill="#b15a36" opacity="0.7"/>
<circle cx="439.47" cy="301.47" r="2.2" fill="#b15a36" opacity="0.7"/>
<circle cx="413.16" cy="323.16" r="2.2" fill="#b15a36" opacity="0.7"/>
<circle cx="413.16" cy="301.47" r="2.2" fill="#b15a36" opacity="0.7"/>
<circle cx="452.63" cy="323.16" r="2.2" fill="#b15a36" opacity="0.7"/>
<circle cx="413.16" cy="323.16" r="2.2" fill="#b15a36" opacity="0.7"/>
<circle cx="400.00" cy="312.32" r="2.2" fill="#b15a36" opacity="0.7"/>
<circle cx="492.11" cy="323.16" r="2.2" fill="#b15a36" opacity="0.7"/>
<circle cx="413.16" cy="290.63" r="2.2" fill="#b15a36" opacity="0.7"/>
<circle cx="400.00" cy="268.95" r="2.2" fill="#b15a36" opacity="0.7"/>
<circle cx="557.89" cy="149.68" r="2.2" fill="#b15a36" opacity="0.7"/>
<circle cx="439.47" cy="290.63" r="2.2" fill="#b15a36" opacity="0.7"/>
<circle cx="439.47" cy="334.00" r="2.2" fill="#b15a36" opacity="0.7"/>
<circle cx="413.16" cy="334.00" r="2.2" fill="#b15a36" opacity="0.7"/>
<circle cx="413.16" cy="312.32" r="2.2" fill="#b15a36" opacity="0.7"/>
<circle cx="413.16" cy="323.16" r="2.2" fill="#b15a36" opacity="0.7"/>
<circle cx="413.16" cy="334.00" r="2.2" fill="#b15a36" opacity="0.7"/>
<circle cx="400.00" cy="301.47" r="2.2" fill="#b15a36" opacity="0.7"/>
<circle cx="413.16" cy="323.16" r="2.2" fill="#b15a36" opacity="0.7"/>
<circle cx="413.16" cy="334.00" r="2.2" fill="#b15a36" opacity="0.7"/>
<circle cx="439.47" cy="323.16" r="2.2" fill="#b15a36" opacity="0.7"/>
<circle cx="465.79" cy="323.16" r="2.2" fill="#b15a36" opacity="0.7"/>
<circle cx="413.16" cy="323.16" r="2.2" fill="#b15a36" opacity="0.7"/>
<circle cx="426.32" cy="334.00" r="2.2" fill="#b15a36" opacity="0.7"/>
<circle cx="413.16" cy="334.00" r="2.2" fill="#b15a36" opacity="0.7"/>
<circle cx="413.16" cy="334.00" r="2.2" fill="#b15a36" opacity="0.7"/>
<circle cx="413.16" cy="290.63" r="2.2" fill="#b15a36" opacity="0.7"/>
<circle cx="426.32" cy="334.00" r="2.2" fill="#b15a36" opacity="0.7"/>
<circle cx="400.00" cy="323.16" r="2.2" fill="#b15a36" opacity="0.7"/>
<circle cx="400.00" cy="323.16" r="2.2" fill="#b15a36" opacity="0.7"/>
<circle cx="426.32" cy="301.47" r="2.2" fill="#b15a36" opacity="0.7"/>
<circle cx="426.32" cy="312.32" r="2.2" fill="#b15a36" opacity="0.7"/>
<circle cx="400.00" cy="301.47" r="2.2" fill="#b15a36" opacity="0.7"/>
<circle cx="492.11" cy="323.16" r="2.2" fill="#b15a36" opacity="0.7"/>
<circle cx="426.32" cy="323.16" r="2.2" fill="#b15a36" opacity="0.7"/>
<circle cx="439.47" cy="334.00" r="2.2" fill="#b15a36" opacity="0.7"/>
<circle cx="439.47" cy="334.00" r="2.2" fill="#b15a36" opacity="0.7"/>
<circle cx="400.00" cy="301.47" r="2.2" fill="#b15a36" opacity="0.7"/>
<circle cx="413.16" cy="334.00" r="2.2" fill="#b15a36" opacity="0.7"/>
<circle cx="400.00" cy="323.16" r="2.2" fill="#b15a36" opacity="0.7"/>
<circle cx="413.16" cy="334.00" r="2.2" fill="#b15a36" opacity="0.7"/>
<circle cx="400.00" cy="290.63" r="2.2" fill="#b15a36" opacity="0.7"/>
<circle cx="426.32" cy="334.00" r="2.2" fill="#b15a36" opacity="0.7"/>
<circle cx="400.00" cy="323.16" r="2.2" fill="#b15a36" opacity="0.7"/>
<circle cx="452.63" cy="225.58" r="2.2" fill="#b15a36" opacity="0.7"/>
<circle cx="426.32" cy="301.47" r="2.2" fill="#b15a36" opacity="0.7"/>
<circle cx="452.63" cy="312.32" r="2.2" fill="#b15a36" opacity="0.7"/>
<circle cx="557.89" cy="225.58" r="2.2" fill="#b15a36" opacity="0.7"/>
<circle cx="439.47" cy="301.47" r="2.2" fill="#b15a36" opacity="0.7"/>
<circle cx="400.00" cy="323.16" r="2.2" fill="#b15a36" opacity="0.7"/>
<circle cx="413.16" cy="279.79" r="2.2" fill="#b15a36" opacity="0.7"/>
<circle cx="413.16" cy="334.00" r="2.2" fill="#b15a36" opacity="0.7"/>
<circle cx="413.16" cy="323.16" r="2.2" fill="#b15a36" opacity="0.7"/>
<circle cx="426.32" cy="323.16" r="2.2" fill="#b15a36" opacity="0.7"/>
<circle cx="426.32" cy="323.16" r="2.2" fill="#b15a36" opacity="0.7"/>
<circle cx="439.47" cy="334.00" r="2.2" fill="#b15a36" opacity="0.7"/>
<circle cx="426.32" cy="323.16" r="2.2" fill="#b15a36" opacity="0.7"/>
<circle cx="413.16" cy="334.00" r="2.2" fill="#b15a36" opacity="0.7"/>
<circle cx="413.16" cy="334.00" r="2.2" fill="#b15a36" opacity="0.7"/>
<circle cx="426.32" cy="301.47" r="2.2" fill="#b15a36" opacity="0.7"/>
<circle cx="400.00" cy="301.47" r="2.2" fill="#b15a36" opacity="0.7"/>
<circle cx="413.16" cy="323.16" r="2.2" fill="#b15a36" opacity="0.7"/>
<circle cx="426.32" cy="323.16" r="2.2" fill="#b15a36" opacity="0.7"/>
<circle cx="413.16" cy="312.32" r="2.2" fill="#b15a36" opacity="0.7"/>
<circle cx="413.16" cy="323.16" r="2.2" fill="#b15a36" opacity="0.7"/>
<circle cx="426.32" cy="334.00" r="2.2" fill="#b15a36" opacity="0.7"/>
<circle cx="400.00" cy="323.16" r="2.2" fill="#b15a36" opacity="0.7"/>
<circle cx="413.16" cy="334.00" r="2.2" fill="#b15a36" opacity="0.7"/>
<circle cx="413.16" cy="323.16" r="2.2" fill="#b15a36" opacity="0.7"/>
<circle cx="413.16" cy="334.00" r="2.2" fill="#b15a36" opacity="0.7"/>
<circle cx="400.00" cy="323.16" r="2.2" fill="#b15a36" opacity="0.7"/>
<circle cx="426.32" cy="334.00" r="2.2" fill="#b15a36" opacity="0.7"/>
<circle cx="400.00" cy="323.16" r="2.2" fill="#b15a36" opacity="0.7"/>
<circle cx="413.16" cy="334.00" r="2.2" fill="#b15a36" opacity="0.7"/>
<circle cx="413.16" cy="334.00" r="2.2" fill="#b15a36" opacity="0.7"/>
<circle cx="400.00" cy="301.47" r="2.2" fill="#b15a36" opacity="0.7"/>
<circle cx="413.16" cy="334.00" r="2.2" fill="#b15a36" opacity="0.7"/>
<circle cx="426.32" cy="334.00" r="2.2" fill="#b15a36" opacity="0.7"/>
<circle cx="413.16" cy="334.00" r="2.2" fill="#b15a36" opacity="0.7"/>
<circle cx="413.16" cy="334.00" r="2.2" fill="#b15a36" opacity="0.7"/>
<circle cx="413.16" cy="323.16" r="2.2" fill="#b15a36" opacity="0.7"/>
<circle cx="426.32" cy="334.00" r="2.2" fill="#b15a36" opacity="0.7"/>
<circle cx="413.16" cy="312.32" r="2.2" fill="#b15a36" opacity="0.7"/>
<circle cx="426.32" cy="334.00" r="2.2" fill="#b15a36" opacity="0.7"/>
<circle cx="413.16" cy="334.00" r="2.2" fill="#b15a36" opacity="0.7"/>
<circle cx="465.79" cy="323.16" r="2.2" fill="#b15a36" opacity="0.7"/>
<circle cx="426.32" cy="258.11" r="2.2" fill="#b15a36" opacity="0.7"/>
<circle cx="426.32" cy="301.47" r="2.2" fill="#b15a36" opacity="0.7"/>
<circle cx="426.32" cy="323.16" r="2.2" fill="#b15a36" opacity="0.7"/>
<circle cx="413.16" cy="312.32" r="2.2" fill="#b15a36" opacity="0.7"/>
<circle cx="413.16" cy="334.00" r="2.2" fill="#b15a36" opacity="0.7"/>
<circle cx="413.16" cy="334.00" r="2.2" fill="#b15a36" opacity="0.7"/>
<circle cx="426.32" cy="334.00" r="2.2" fill="#b15a36" opacity="0.7"/>
<circle cx="400.00" cy="312.32" r="2.2" fill="#b15a36" opacity="0.7"/>
<circle cx="400.00" cy="290.63" r="2.2" fill="#b15a36" opacity="0.7"/>
<circle cx="426.32" cy="334.00" r="2.2" fill="#b15a36" opacity="0.7"/>
<circle cx="452.63" cy="301.47" r="2.2" fill="#b15a36" opacity="0.7"/>
<circle cx="413.16" cy="334.00" r="2.2" fill="#b15a36" opacity="0.7"/>
<circle cx="426.32" cy="323.16" r="2.2" fill="#b15a36" opacity="0.7"/>
<circle cx="413.16" cy="334.00" r="2.2" fill="#b15a36" opacity="0.7"/>
<circle cx="413.16" cy="334.00" r="2.2" fill="#b15a36" opacity="0.7"/>
<circle cx="413.16" cy="334.00" r="2.2" fill="#b15a36" opacity="0.7"/>
<circle cx="426.32" cy="334.00" r="2.2" fill="#b15a36" opacity="0.7"/>
<circle cx="413.16" cy="334.00" r="2.2" fill="#b15a36" opacity="0.7"/>
<circle cx="426.32" cy="334.00" r="2.2" fill="#b15a36" opacity="0.7"/>
<circle cx="400.00" cy="279.79" r="2.2" fill="#b15a36" opacity="0.7"/>
<circle cx="413.16" cy="334.00" r="2.2" fill="#b15a36" opacity="0.7"/>
<circle cx="400.00" cy="301.47" r="2.2" fill="#b15a36" opacity="0.7"/>
<circle cx="400.00" cy="323.16" r="2.2" fill="#b15a36" opacity="0.7"/>
<circle cx="426.32" cy="334.00" r="2.2" fill="#b15a36" opacity="0.7"/>
<circle cx="413.16" cy="334.00" r="2.2" fill="#b15a36" opacity="0.7"/>
<circle cx="400.00" cy="312.32" r="2.2" fill="#b15a36" opacity="0.7"/>
<circle cx="413.16" cy="334.00" r="2.2" fill="#b15a36" opacity="0.7"/>
<circle cx="400.00" cy="323.16" r="2.2" fill="#b15a36" opacity="0.7"/>
<circle cx="400.00" cy="323.16" r="2.2" fill="#b15a36" opacity="0.7"/>
<circle cx="400.00" cy="312.32" r="2.2" fill="#b15a36" opacity="0.7"/>
<circle cx="400.00" cy="312.32" r="2.2" fill="#b15a36" opacity="0.7"/>
<circle cx="452.63" cy="312.32" r="2.2" fill="#b15a36" opacity="0.7"/>
<circle cx="426.32" cy="334.00" r="2.2" fill="#b15a36" opacity="0.7"/>
<circle cx="400.00" cy="323.16" r="2.2" fill="#b15a36" opacity="0.7"/>
<circle cx="413.16" cy="323.16" r="2.2" fill="#b15a36" opacity="0.7"/>
<circle cx="400.00" cy="323.16" r="2.2" fill="#b15a36" opacity="0.7"/>
<circle cx="400.00" cy="323.16" r="2.2" fill="#b15a36" opacity="0.7"/>
<circle cx="400.00" cy="323.16" r="2.2" fill="#b15a36" opacity="0.7"/>
<circle cx="400.00" cy="323.16" r="2.2" fill="#b15a36" opacity="0.7"/>
<circle cx="426.32" cy="334.00" r="2.2" fill="#b15a36" opacity="0.7"/>
<circle cx="413.16" cy="301.47" r="2.2" fill="#b15a36" opacity="0.7"/>
<circle cx="413.16" cy="312.32" r="2.2" fill="#b15a36" opacity="0.7"/>
<circle cx="413.16" cy="312.32" r="2.2" fill="#b15a36" opacity="0.7"/>
<circle cx="465.79" cy="301.47" r="2.2" fill="#b15a36" opacity="0.7"/>
<circle cx="426.32" cy="323.16" r="2.2" fill="#b15a36" opacity="0.7"/>
<circle cx="426.32" cy="301.47" r="2.2" fill="#b15a36" opacity="0.7"/>
<circle cx="478.95" cy="193.05" r="2.2" fill="#b15a36" opacity="0.7"/>
<circle cx="439.47" cy="323.16" r="2.2" fill="#b15a36" opacity="0.7"/>
<circle cx="413.16" cy="334.00" r="2.2" fill="#b15a36" opacity="0.7"/>
<circle cx="426.32" cy="323.16" r="2.2" fill="#b15a36" opacity="0.7"/>
<circle cx="413.16" cy="334.00" r="2.2" fill="#b15a36" opacity="0.7"/>
<circle cx="426.32" cy="323.16" r="2.2" fill="#b15a36" opacity="0.7"/>
<circle cx="426.32" cy="323.16" r="2.2" fill="#b15a36" opacity="0.7"/>
<circle cx="452.63" cy="334.00" r="2.2" fill="#b15a36" opacity="0.7"/>
<circle cx="413.16" cy="334.00" r="2.2" fill="#b15a36" opacity="0.7"/>
<circle cx="439.47" cy="290.63" r="2.2" fill="#b15a36" opacity="0.7"/>
<circle cx="400.00" cy="312.32" r="2.2" fill="#b15a36" opacity="0.7"/>
<circle cx="426.32" cy="323.16" r="2.2" fill="#b15a36" opacity="0.7"/>
<circle cx="413.16" cy="334.00" r="2.2" fill="#b15a36" opacity="0.7"/>
<circle cx="439.47" cy="301.47" r="2.2" fill="#b15a36" opacity="0.7"/>
<circle cx="413.16" cy="334.00" r="2.2" fill="#b15a36" opacity="0.7"/>
<circle cx="426.32" cy="323.16" r="2.2" fill="#b15a36" opacity="0.7"/>
<circle cx="426.32" cy="334.00" r="2.2" fill="#b15a36" opacity="0.7"/>
<circle cx="413.16" cy="323.16" r="2.2" fill="#b15a36" opacity="0.7"/>
<circle cx="413.16" cy="334.00" r="2.2" fill="#b15a36" opacity="0.7"/>
<circle cx="426.32" cy="312.32" r="2.2" fill="#b15a36" opacity="0.7"/>
<circle cx="426.32" cy="268.95" r="2.2" fill="#b15a36" opacity="0.7"/>
<circle cx="413.16" cy="334.00" r="2.2" fill="#b15a36" opacity="0.7"/>
<circle cx="400.00" cy="312.32" r="2.2" fill="#b15a36" opacity="0.7"/>
<circle cx="439.47" cy="323.16" r="2.2" fill="#b15a36" opacity="0.7"/>
<circle cx="413.16" cy="323.16" r="2.2" fill="#b15a36" opacity="0.7"/>
<circle cx="452.63" cy="334.00" r="2.2" fill="#b15a36" opacity="0.7"/>
<circle cx="400.00" cy="301.47" r="2.2" fill="#b15a36" opacity="0.7"/>
<circle cx="400.00" cy="312.32" r="2.2" fill="#b15a36" opacity="0.7"/>
<circle cx="400.00" cy="312.32" r="2.2" fill="#b15a36" opacity="0.7"/>
<circle cx="439.47" cy="334.00" r="2.2" fill="#b15a36" opacity="0.7"/>
<circle cx="400.00" cy="323.16" r="2.2" fill="#b15a36" opacity="0.7"/>
<circle cx="413.16" cy="334.00" r="2.2" fill="#b15a36" opacity="0.7"/>
<circle cx="413.16" cy="312.32" r="2.2" fill="#b15a36" opacity="0.7"/>
<circle cx="465.79" cy="160.53" r="2.2" fill="#b15a36" opacity="0.7"/>
<circle cx="426.32" cy="323.16" r="2.2" fill="#b15a36" opacity="0.7"/>
<circle cx="426.32" cy="312.32" r="2.2" fill="#b15a36" opacity="0.7"/>
<circle cx="439.47" cy="301.47" r="2.2" fill="#b15a36" opacity="0.7"/>
<circle cx="465.79" cy="301.47" r="2.2" fill="#b15a36" opacity="0.7"/>
<circle cx="439.47" cy="323.16" r="2.2" fill="#b15a36" opacity="0.7"/>
<circle cx="413.16" cy="323.16" r="2.2" fill="#b15a36" opacity="0.7"/>
<circle cx="478.95" cy="290.63" r="2.2" fill="#b15a36" opacity="0.7"/>
<circle cx="413.16" cy="334.00" r="2.2" fill="#b15a36" opacity="0.7"/>
<circle cx="400.00" cy="279.79" r="2.2" fill="#b15a36" opacity="0.7"/>
<circle cx="439.47" cy="301.47" r="2.2" fill="#b15a36" opacity="0.7"/>
<circle cx="492.11" cy="258.11" r="2.2" fill="#b15a36" opacity="0.7"/>
<circle cx="465.79" cy="312.32" r="2.2" fill="#b15a36" opacity="0.7"/>
<circle cx="452.63" cy="268.95" r="2.2" fill="#b15a36" opacity="0.7"/>
<circle cx="544.74" cy="128.00" r="2.2" fill="#b15a36" opacity="0.7"/>
<text x="658" y="130" text-anchor="end" font-size="11" font-family="Arial, sans-serif" fill="#6a7478">r 0.593</text>
<text x="658" y="146" text-anchor="end" font-size="11" font-family="Arial, sans-serif" fill="#6a7478">n 183</text>
<text x="700" y="92" font-size="13" font-family="Arial, sans-serif" fill="#33454d">Distal 20 bp</text>
<rect x="700" y="110" width="300" height="250" rx="8" fill="#fffdf8" stroke="#ddd7cb"/>
<line x1="730" y1="334" x2="980" y2="334" stroke="#c8c3b7"/>
<line x1="730" y1="334" x2="730" y2="128" stroke="#c8c3b7"/>
<line x1="730" y1="334" x2="980" y2="128" stroke="#e3ded3" stroke-dasharray="4 4"/>
<circle cx="917.50" cy="162.33" r="2.2" fill="#b15a36" opacity="0.7"/>
<circle cx="771.67" cy="316.83" r="2.2" fill="#b15a36" opacity="0.7"/>
<circle cx="834.17" cy="265.33" r="2.2" fill="#b15a36" opacity="0.7"/>
<circle cx="792.50" cy="179.50" r="2.2" fill="#b15a36" opacity="0.7"/>
<circle cx="750.83" cy="334.00" r="2.2" fill="#b15a36" opacity="0.7"/>
<circle cx="771.67" cy="265.33" r="2.2" fill="#b15a36" opacity="0.7"/>
<circle cx="792.50" cy="316.83" r="2.2" fill="#b15a36" opacity="0.7"/>
<circle cx="771.67" cy="316.83" r="2.2" fill="#b15a36" opacity="0.7"/>
<circle cx="750.83" cy="316.83" r="2.2" fill="#b15a36" opacity="0.7"/>
<circle cx="771.67" cy="213.83" r="2.2" fill="#b15a36" opacity="0.7"/>
<circle cx="771.67" cy="299.67" r="2.2" fill="#b15a36" opacity="0.7"/>
<circle cx="855.00" cy="299.67" r="2.2" fill="#b15a36" opacity="0.7"/>
<circle cx="792.50" cy="265.33" r="2.2" fill="#b15a36" opacity="0.7"/>
<circle cx="730.00" cy="299.67" r="2.2" fill="#b15a36" opacity="0.7"/>
<circle cx="792.50" cy="179.50" r="2.2" fill="#b15a36" opacity="0.7"/>
<circle cx="792.50" cy="316.83" r="2.2" fill="#b15a36" opacity="0.7"/>
<circle cx="750.83" cy="334.00" r="2.2" fill="#b15a36" opacity="0.7"/>
<circle cx="771.67" cy="282.50" r="2.2" fill="#b15a36" opacity="0.7"/>
<circle cx="730.00" cy="282.50" r="2.2" fill="#b15a36" opacity="0.7"/>
<circle cx="750.83" cy="334.00" r="2.2" fill="#b15a36" opacity="0.7"/>
<circle cx="771.67" cy="316.83" r="2.2" fill="#b15a36" opacity="0.7"/>
<circle cx="750.83" cy="334.00" r="2.2" fill="#b15a36" opacity="0.7"/>
<circle cx="750.83" cy="299.67" r="2.2" fill="#b15a36" opacity="0.7"/>
<circle cx="771.67" cy="334.00" r="2.2" fill="#b15a36" opacity="0.7"/>
<circle cx="771.67" cy="334.00" r="2.2" fill="#b15a36" opacity="0.7"/>
<circle cx="855.00" cy="316.83" r="2.2" fill="#b15a36" opacity="0.7"/>
<circle cx="792.50" cy="334.00" r="2.2" fill="#b15a36" opacity="0.7"/>
<circle cx="771.67" cy="316.83" r="2.2" fill="#b15a36" opacity="0.7"/>
<circle cx="771.67" cy="316.83" r="2.2" fill="#b15a36" opacity="0.7"/>
<circle cx="750.83" cy="316.83" r="2.2" fill="#b15a36" opacity="0.7"/>
<circle cx="750.83" cy="334.00" r="2.2" fill="#b15a36" opacity="0.7"/>
<circle cx="730.00" cy="213.83" r="2.2" fill="#b15a36" opacity="0.7"/>
<circle cx="750.83" cy="299.67" r="2.2" fill="#b15a36" opacity="0.7"/>
<circle cx="792.50" cy="299.67" r="2.2" fill="#b15a36" opacity="0.7"/>
<circle cx="750.83" cy="265.33" r="2.2" fill="#b15a36" opacity="0.7"/>
<circle cx="750.83" cy="282.50" r="2.2" fill="#b15a36" opacity="0.7"/>
<circle cx="792.50" cy="334.00" r="2.2" fill="#b15a36" opacity="0.7"/>
<circle cx="792.50" cy="334.00" r="2.2" fill="#b15a36" opacity="0.7"/>
<circle cx="750.83" cy="299.67" r="2.2" fill="#b15a36" opacity="0.7"/>
<circle cx="792.50" cy="334.00" r="2.2" fill="#b15a36" opacity="0.7"/>
<circle cx="792.50" cy="248.17" r="2.2" fill="#b15a36" opacity="0.7"/>
<circle cx="771.67" cy="334.00" r="2.2" fill="#b15a36" opacity="0.7"/>
<circle cx="750.83" cy="334.00" r="2.2" fill="#b15a36" opacity="0.7"/>
<circle cx="771.67" cy="299.67" r="2.2" fill="#b15a36" opacity="0.7"/>
<circle cx="750.83" cy="248.17" r="2.2" fill="#b15a36" opacity="0.7"/>
<circle cx="792.50" cy="231.00" r="2.2" fill="#b15a36" opacity="0.7"/>
<circle cx="917.50" cy="128.00" r="2.2" fill="#b15a36" opacity="0.7"/>
<circle cx="813.33" cy="196.67" r="2.2" fill="#b15a36" opacity="0.7"/>
<circle cx="730.00" cy="299.67" r="2.2" fill="#b15a36" opacity="0.7"/>
<circle cx="750.83" cy="299.67" r="2.2" fill="#b15a36" opacity="0.7"/>
<circle cx="813.33" cy="299.67" r="2.2" fill="#b15a36" opacity="0.7"/>
<circle cx="750.83" cy="334.00" r="2.2" fill="#b15a36" opacity="0.7"/>
<circle cx="750.83" cy="334.00" r="2.2" fill="#b15a36" opacity="0.7"/>
<circle cx="730.00" cy="316.83" r="2.2" fill="#b15a36" opacity="0.7"/>
<circle cx="771.67" cy="334.00" r="2.2" fill="#b15a36" opacity="0.7"/>
<circle cx="750.83" cy="334.00" r="2.2" fill="#b15a36" opacity="0.7"/>
<circle cx="750.83" cy="334.00" r="2.2" fill="#b15a36" opacity="0.7"/>
<circle cx="750.83" cy="282.50" r="2.2" fill="#b15a36" opacity="0.7"/>
<circle cx="792.50" cy="248.17" r="2.2" fill="#b15a36" opacity="0.7"/>
<circle cx="750.83" cy="334.00" r="2.2" fill="#b15a36" opacity="0.7"/>
<circle cx="730.00" cy="316.83" r="2.2" fill="#b15a36" opacity="0.7"/>
<circle cx="750.83" cy="299.67" r="2.2" fill="#b15a36" opacity="0.7"/>
<circle cx="771.67" cy="334.00" r="2.2" fill="#b15a36" opacity="0.7"/>
<circle cx="750.83" cy="316.83" r="2.2" fill="#b15a36" opacity="0.7"/>
<circle cx="750.83" cy="334.00" r="2.2" fill="#b15a36" opacity="0.7"/>
<circle cx="792.50" cy="334.00" r="2.2" fill="#b15a36" opacity="0.7"/>
<circle cx="730.00" cy="316.83" r="2.2" fill="#b15a36" opacity="0.7"/>
<circle cx="750.83" cy="334.00" r="2.2" fill="#b15a36" opacity="0.7"/>
<circle cx="730.00" cy="316.83" r="2.2" fill="#b15a36" opacity="0.7"/>
<circle cx="771.67" cy="334.00" r="2.2" fill="#b15a36" opacity="0.7"/>
<circle cx="750.83" cy="334.00" r="2.2" fill="#b15a36" opacity="0.7"/>
<circle cx="750.83" cy="334.00" r="2.2" fill="#b15a36" opacity="0.7"/>
<circle cx="750.83" cy="334.00" r="2.2" fill="#b15a36" opacity="0.7"/>
<circle cx="792.50" cy="282.50" r="2.2" fill="#b15a36" opacity="0.7"/>
<circle cx="750.83" cy="334.00" r="2.2" fill="#b15a36" opacity="0.7"/>
<circle cx="750.83" cy="334.00" r="2.2" fill="#b15a36" opacity="0.7"/>
<circle cx="750.83" cy="334.00" r="2.2" fill="#b15a36" opacity="0.7"/>
<circle cx="771.67" cy="334.00" r="2.2" fill="#b15a36" opacity="0.7"/>
<circle cx="750.83" cy="316.83" r="2.2" fill="#b15a36" opacity="0.7"/>
<circle cx="792.50" cy="334.00" r="2.2" fill="#b15a36" opacity="0.7"/>
<circle cx="750.83" cy="334.00" r="2.2" fill="#b15a36" opacity="0.7"/>
<circle cx="750.83" cy="334.00" r="2.2" fill="#b15a36" opacity="0.7"/>
<circle cx="792.50" cy="334.00" r="2.2" fill="#b15a36" opacity="0.7"/>
<circle cx="771.67" cy="316.83" r="2.2" fill="#b15a36" opacity="0.7"/>
<circle cx="792.50" cy="334.00" r="2.2" fill="#b15a36" opacity="0.7"/>
<circle cx="834.17" cy="316.83" r="2.2" fill="#b15a36" opacity="0.7"/>
<circle cx="750.83" cy="334.00" r="2.2" fill="#b15a36" opacity="0.7"/>
<circle cx="750.83" cy="282.50" r="2.2" fill="#b15a36" opacity="0.7"/>
<circle cx="750.83" cy="299.67" r="2.2" fill="#b15a36" opacity="0.7"/>
<circle cx="730.00" cy="316.83" r="2.2" fill="#b15a36" opacity="0.7"/>
<circle cx="792.50" cy="334.00" r="2.2" fill="#b15a36" opacity="0.7"/>
<circle cx="730.00" cy="316.83" r="2.2" fill="#b15a36" opacity="0.7"/>
<circle cx="730.00" cy="265.33" r="2.2" fill="#b15a36" opacity="0.7"/>
<circle cx="771.67" cy="334.00" r="2.2" fill="#b15a36" opacity="0.7"/>
<circle cx="750.83" cy="334.00" r="2.2" fill="#b15a36" opacity="0.7"/>
<circle cx="750.83" cy="334.00" r="2.2" fill="#b15a36" opacity="0.7"/>
<circle cx="771.67" cy="196.67" r="2.2" fill="#b15a36" opacity="0.7"/>
<circle cx="730.00" cy="316.83" r="2.2" fill="#b15a36" opacity="0.7"/>
<circle cx="771.67" cy="334.00" r="2.2" fill="#b15a36" opacity="0.7"/>
<circle cx="750.83" cy="334.00" r="2.2" fill="#b15a36" opacity="0.7"/>
<circle cx="771.67" cy="334.00" r="2.2" fill="#b15a36" opacity="0.7"/>
<circle cx="750.83" cy="334.00" r="2.2" fill="#b15a36" opacity="0.7"/>
<circle cx="813.33" cy="334.00" r="2.2" fill="#b15a36" opacity="0.7"/>
<circle cx="750.83" cy="282.50" r="2.2" fill="#b15a36" opacity="0.7"/>
<circle cx="730.00" cy="265.33" r="2.2" fill="#b15a36" opacity="0.7"/>
<circle cx="771.67" cy="282.50" r="2.2" fill="#b15a36" opacity="0.7"/>
<circle cx="750.83" cy="334.00" r="2.2" fill="#b15a36" opacity="0.7"/>
<circle cx="771.67" cy="334.00" r="2.2" fill="#b15a36" opacity="0.7"/>
<circle cx="750.83" cy="265.33" r="2.2" fill="#b15a36" opacity="0.7"/>
<circle cx="750.83" cy="334.00" r="2.2" fill="#b15a36" opacity="0.7"/>
<circle cx="730.00" cy="248.17" r="2.2" fill="#b15a36" opacity="0.7"/>
<circle cx="730.00" cy="213.83" r="2.2" fill="#b15a36" opacity="0.7"/>
<circle cx="792.50" cy="316.83" r="2.2" fill="#b15a36" opacity="0.7"/>
<circle cx="750.83" cy="334.00" r="2.2" fill="#b15a36" opacity="0.7"/>
<circle cx="730.00" cy="248.17" r="2.2" fill="#b15a36" opacity="0.7"/>
<circle cx="730.00" cy="231.00" r="2.2" fill="#b15a36" opacity="0.7"/>
<circle cx="792.50" cy="282.50" r="2.2" fill="#b15a36" opacity="0.7"/>
<circle cx="813.33" cy="334.00" r="2.2" fill="#b15a36" opacity="0.7"/>
<circle cx="750.83" cy="334.00" r="2.2" fill="#b15a36" opacity="0.7"/>
<circle cx="750.83" cy="334.00" r="2.2" fill="#b15a36" opacity="0.7"/>
<circle cx="771.67" cy="334.00" r="2.2" fill="#b15a36" opacity="0.7"/>
<circle cx="730.00" cy="299.67" r="2.2" fill="#b15a36" opacity="0.7"/>
<circle cx="730.00" cy="248.17" r="2.2" fill="#b15a36" opacity="0.7"/>
<circle cx="750.83" cy="334.00" r="2.2" fill="#b15a36" opacity="0.7"/>
<circle cx="771.67" cy="299.67" r="2.2" fill="#b15a36" opacity="0.7"/>
<circle cx="750.83" cy="316.83" r="2.2" fill="#b15a36" opacity="0.7"/>
<circle cx="730.00" cy="265.33" r="2.2" fill="#b15a36" opacity="0.7"/>
<circle cx="771.67" cy="282.50" r="2.2" fill="#b15a36" opacity="0.7"/>
<circle cx="813.33" cy="282.50" r="2.2" fill="#b15a36" opacity="0.7"/>
<circle cx="792.50" cy="299.67" r="2.2" fill="#b15a36" opacity="0.7"/>
<circle cx="730.00" cy="282.50" r="2.2" fill="#b15a36" opacity="0.7"/>
<circle cx="792.50" cy="282.50" r="2.2" fill="#b15a36" opacity="0.7"/>
<circle cx="771.67" cy="316.83" r="2.2" fill="#b15a36" opacity="0.7"/>
<circle cx="750.83" cy="334.00" r="2.2" fill="#b15a36" opacity="0.7"/>
<circle cx="792.50" cy="316.83" r="2.2" fill="#b15a36" opacity="0.7"/>
<circle cx="750.83" cy="334.00" r="2.2" fill="#b15a36" opacity="0.7"/>
<circle cx="750.83" cy="282.50" r="2.2" fill="#b15a36" opacity="0.7"/>
<circle cx="771.67" cy="282.50" r="2.2" fill="#b15a36" opacity="0.7"/>
<circle cx="813.33" cy="334.00" r="2.2" fill="#b15a36" opacity="0.7"/>
<circle cx="750.83" cy="316.83" r="2.2" fill="#b15a36" opacity="0.7"/>
<circle cx="750.83" cy="334.00" r="2.2" fill="#b15a36" opacity="0.7"/>
<circle cx="813.33" cy="316.83" r="2.2" fill="#b15a36" opacity="0.7"/>
<circle cx="813.33" cy="231.00" r="2.2" fill="#b15a36" opacity="0.7"/>
<circle cx="750.83" cy="316.83" r="2.2" fill="#b15a36" opacity="0.7"/>
<circle cx="750.83" cy="334.00" r="2.2" fill="#b15a36" opacity="0.7"/>
<circle cx="750.83" cy="316.83" r="2.2" fill="#b15a36" opacity="0.7"/>
<circle cx="771.67" cy="316.83" r="2.2" fill="#b15a36" opacity="0.7"/>
<circle cx="750.83" cy="334.00" r="2.2" fill="#b15a36" opacity="0.7"/>
<circle cx="750.83" cy="334.00" r="2.2" fill="#b15a36" opacity="0.7"/>
<circle cx="750.83" cy="334.00" r="2.2" fill="#b15a36" opacity="0.7"/>
<circle cx="750.83" cy="334.00" r="2.2" fill="#b15a36" opacity="0.7"/>
<circle cx="750.83" cy="316.83" r="2.2" fill="#b15a36" opacity="0.7"/>
<circle cx="750.83" cy="334.00" r="2.2" fill="#b15a36" opacity="0.7"/>
<circle cx="792.50" cy="334.00" r="2.2" fill="#b15a36" opacity="0.7"/>
<circle cx="792.50" cy="334.00" r="2.2" fill="#b15a36" opacity="0.7"/>
<circle cx="771.67" cy="282.50" r="2.2" fill="#b15a36" opacity="0.7"/>
<circle cx="730.00" cy="316.83" r="2.2" fill="#b15a36" opacity="0.7"/>
<circle cx="730.00" cy="299.67" r="2.2" fill="#b15a36" opacity="0.7"/>
<circle cx="792.50" cy="265.33" r="2.2" fill="#b15a36" opacity="0.7"/>
<circle cx="750.83" cy="334.00" r="2.2" fill="#b15a36" opacity="0.7"/>
<circle cx="792.50" cy="334.00" r="2.2" fill="#b15a36" opacity="0.7"/>
<circle cx="750.83" cy="265.33" r="2.2" fill="#b15a36" opacity="0.7"/>
<circle cx="771.67" cy="213.83" r="2.2" fill="#b15a36" opacity="0.7"/>
<circle cx="792.50" cy="282.50" r="2.2" fill="#b15a36" opacity="0.7"/>
<circle cx="750.83" cy="334.00" r="2.2" fill="#b15a36" opacity="0.7"/>
<circle cx="750.83" cy="334.00" r="2.2" fill="#b15a36" opacity="0.7"/>
<circle cx="813.33" cy="334.00" r="2.2" fill="#b15a36" opacity="0.7"/>
<circle cx="771.67" cy="248.17" r="2.2" fill="#b15a36" opacity="0.7"/>
<circle cx="730.00" cy="316.83" r="2.2" fill="#b15a36" opacity="0.7"/>
<circle cx="730.00" cy="248.17" r="2.2" fill="#b15a36" opacity="0.7"/>
<circle cx="813.33" cy="316.83" r="2.2" fill="#b15a36" opacity="0.7"/>
<circle cx="792.50" cy="282.50" r="2.2" fill="#b15a36" opacity="0.7"/>
<circle cx="750.83" cy="334.00" r="2.2" fill="#b15a36" opacity="0.7"/>
<circle cx="771.67" cy="334.00" r="2.2" fill="#b15a36" opacity="0.7"/>
<circle cx="771.67" cy="213.83" r="2.2" fill="#b15a36" opacity="0.7"/>
<circle cx="792.50" cy="334.00" r="2.2" fill="#b15a36" opacity="0.7"/>
<circle cx="792.50" cy="162.33" r="2.2" fill="#b15a36" opacity="0.7"/>
<circle cx="813.33" cy="334.00" r="2.2" fill="#b15a36" opacity="0.7"/>
<circle cx="813.33" cy="213.83" r="2.2" fill="#b15a36" opacity="0.7"/>
<circle cx="771.67" cy="299.67" r="2.2" fill="#b15a36" opacity="0.7"/>
<circle cx="875.83" cy="231.00" r="2.2" fill="#b15a36" opacity="0.7"/>
<circle cx="896.67" cy="265.33" r="2.2" fill="#b15a36" opacity="0.7"/>
<text x="988" y="130" text-anchor="end" font-size="11" font-family="Arial, sans-serif" fill="#6a7478">r 0.296</text>
<text x="988" y="146" text-anchor="end" font-size="11" font-family="Arial, sans-serif" fill="#6a7478">n 182</text>
</svg>