<svg xmlns="http://www.w3.org/2000/svg" width="1100" height="860" viewBox="0 0 1100 860" role="img">
<rect width="100%" height="100%" fill="#fcfbf7"/>
<text x="36" y="40" font-size="24" font-family="Arial, sans-serif" fill="#1d2a2f">MpraVAE Training Loss Dashboard</text>
<text x="36" y="64" font-size="12" font-family="Arial, sans-serif" fill="#5b666b">Reconstructed from the archived loss history used by the original training workflow.</text>
<text x="70" y="92" font-size="13" font-family="Arial, sans-serif" fill="#33454d">Total Train</text>
<rect x="70" y="110" width="470" height="180" rx="8" fill="#fffdf8" stroke="#ddd7cb"/>
<polyline fill="none" stroke="#c85c38" stroke-width="2.4" points="88.00,124.00 96.86,128.16 105.71,128.65 114.57,129.00 123.43,129.32 132.29,130.41 141.14,132.75 150.00,144.40 158.86,183.57 167.71,220.49 176.57,242.61 185.43,253.19 194.29,258.87 203.14,262.31 212.00,264.78 220.86,266.78 229.71,268.05 238.57,269.17 247.43,270.08 256.29,270.87 265.14,271.39 274.00,271.98 282.86,272.34 291.71,272.69 300.57,273.03 309.43,273.49 318.29,273.77 327.14,274.03 336.00,274.21 344.86,274.36 353.71,274.53 362.57,274.70 371.43,274.83 380.29,274.94 389.14,275.03 398.00,275.13 406.86,275.22 415.71,275.30 424.57,275.40 433.43,275.43 442.29,275.53 451.14,275.58 460.00,275.63 468.86,275.69 477.71,275.78 486.57,275.84 495.43,275.82 504.29,275.91 513.14,275.95 522.00,276.00"/>
<text x="530" y="128" text-anchor="end" font-size="11" font-family="Arial, sans-serif" fill="#6a7478">min 7.8198</text>
<text x="530" y="144" text-anchor="end" font-size="11" font-family="Arial, sans-serif" fill="#6a7478">last 7.8198</text>
<text x="580" y="92" font-size="13" font-family="Arial, sans-serif" fill="#33454d">Total Val</text>
<rect x="580" y="110" width="470" height="180" rx="8" fill="#fffdf8" stroke="#ddd7cb"/>
<polyline fill="none" stroke="#4f6d7a" stroke-width="2.4" points="598.00,124.00 606.86,124.80 615.71,124.89 624.57,125.20 633.43,125.48 642.29,128.30 651.14,135.67 660.00,183.50 668.86,238.35 677.71,263.09 686.57,269.33 695.43,272.71 704.29,273.18 713.14,273.55 722.00,274.04 730.86,274.40 739.71,274.50 748.57,274.62 757.43,274.76 766.29,274.87 775.14,274.95 784.00,275.07 792.86,275.06 801.71,275.13 810.57,275.53 819.43,275.60 828.29,275.62 837.14,275.62 846.00,275.66 854.86,275.71 863.71,275.71 872.57,275.76 881.43,275.77 890.29,275.73 899.14,275.81 908.00,275.81 916.86,275.84 925.71,275.78 934.57,275.83 943.43,275.85 952.29,275.87 961.14,275.90 970.00,275.91 978.86,275.89 987.71,275.88 996.57,275.96 1005.43,276.00 1014.29,275.97 1023.14,275.94 1032.00,275.98"/>
<text x="1040" y="128" text-anchor="end" font-size="11" font-family="Arial, sans-serif" fill="#6a7478">min 7.2420</text>
<text x="1040" y="144" text-anchor="end" font-size="11" font-family="Arial, sans-serif" fill="#6a7478">last 7.2949</text>
<text x="70" y="342" font-size="13" font-family="Arial, sans-serif" fill="#33454d">Recon Train</text>
<rect x="70" y="360" width="470" height="180" rx="8" fill="#fffdf8" stroke="#ddd7cb"/>
<polyline fill="none" stroke="#7aa36f" stroke-width="2.4" points="88.00,374.00 96.86,377.31 105.71,377.74 114.57,377.96 123.43,378.23 132.29,379.31 141.14,381.65 150.00,393.61 158.86,434.02 167.71,472.03 176.57,494.73 185.43,505.34 194.29,510.88 203.14,514.16 212.00,516.41 220.86,518.10 229.71,519.13 238.57,520.08 247.43,520.83 256.29,521.48 265.14,521.88 274.00,522.41 282.86,522.69 291.71,522.99 300.57,523.32 309.43,523.73 318.29,523.98 327.14,524.22 336.00,524.38 344.86,524.50 353.71,524.65 362.57,524.82 371.43,524.92 380.29,525.02 389.14,525.12 398.00,525.20 406.86,525.28 415.71,525.35 424.57,525.44 433.43,525.48 442.29,525.56 451.14,525.61 460.00,525.66 468.86,525.72 477.71,525.80 486.57,525.87 495.43,525.83 504.29,525.91 513.14,525.94 522.00,526.00"/>
<text x="530" y="378" text-anchor="end" font-size="11" font-family="Arial, sans-serif" fill="#6a7478">min 5.6149</text>
<text x="530" y="394" text-anchor="end" font-size="11" font-family="Arial, sans-serif" fill="#6a7478">last 5.6149</text>
<text x="580" y="342" font-size="13" font-family="Arial, sans-serif" fill="#33454d">Recon Val</text>
<rect x="580" y="360" width="470" height="180" rx="8" fill="#fffdf8" stroke="#ddd7cb"/>
<polyline fill="none" stroke="#557153" stroke-width="2.4" points="598.00,374.00 606.86,374.68 615.71,374.72 624.57,374.95 633.43,375.29 642.29,377.96 651.14,385.42 660.00,434.28 668.86,489.99 677.71,515.06 686.57,521.35 695.43,524.49 704.29,524.76 713.14,524.98 722.00,525.22 730.86,525.30 739.71,525.32 748.57,525.32 757.43,525.35 766.29,525.34 775.14,525.35 784.00,525.39 792.86,525.40 801.71,525.45 810.57,525.75 819.43,525.83 828.29,525.85 837.14,525.85 846.00,525.86 854.86,525.87 863.71,525.88 872.57,525.88 881.43,525.89 890.29,525.90 899.14,525.90 908.00,525.91 916.86,525.92 925.71,525.92 934.57,525.93 943.43,525.94 952.29,525.95 961.14,525.95 970.00,525.96 978.86,525.97 987.71,525.97 996.57,525.98 1005.43,525.99 1014.29,525.99 1023.14,525.99 1032.00,526.00"/>
<text x="1040" y="378" text-anchor="end" font-size="11" font-family="Arial, sans-serif" fill="#6a7478">min 2.9911</text>
<text x="1040" y="394" text-anchor="end" font-size="11" font-family="Arial, sans-serif" fill="#6a7478">last 2.9911</text>
<text x="70" y="592" font-size="13" font-family="Arial, sans-serif" fill="#33454d">Pred Train</text>
<rect x="70" y="610" width="470" height="180" rx="8" fill="#fffdf8" stroke="#ddd7cb"/>
<polyline fill="none" stroke="#c0a145" stroke-width="2.4" points="88.00,624.00 96.86,646.02 105.71,647.66 114.57,651.09 123.43,652.92 132.29,653.87 141.14,656.54 150.00,659.10 158.86,663.05 167.71,668.95 176.57,674.83 185.43,685.28 194.29,695.80 203.14,704.37 212.00,714.02 220.86,725.57 229.71,734.37 238.57,740.82 247.43,746.63 256.29,751.98 265.14,755.95 274.00,758.55 282.86,761.11 291.71,763.21 300.57,763.76 309.43,765.85 318.29,767.41 327.14,768.13 336.00,769.01 344.86,770.02 353.71,770.86 362.57,771.02 371.43,772.00 380.29,772.36 389.14,772.30 398.00,772.65 406.86,773.13 415.71,773.61 424.57,773.80 433.43,773.79 442.29,774.34 451.14,774.46 460.00,774.43 468.86,774.53 477.71,774.99 486.57,774.98 495.43,775.57 504.29,775.63 513.14,776.00 522.00,775.79"/>
<text x="530" y="628" text-anchor="end" font-size="11" font-family="Arial, sans-serif" fill="#6a7478">min 2.0915</text>
<text x="530" y="644" text-anchor="end" font-size="11" font-family="Arial, sans-serif" fill="#6a7478">last 2.1068</text>
<text x="580" y="592" font-size="13" font-family="Arial, sans-serif" fill="#33454d">Pred Val</text>
<rect x="580" y="610" width="470" height="180" rx="8" fill="#fffdf8" stroke="#ddd7cb"/>
<polyline fill="none" stroke="#8d6b2f" stroke-width="2.4" points="598.00,624.00 606.86,631.38 615.71,631.60 624.57,635.74 633.43,633.07 642.29,643.42 651.14,646.16 660.00,646.28 668.86,660.80 677.71,669.17 686.57,673.32 695.43,687.34 704.29,697.24 713.14,705.14 722.00,717.87 730.86,731.32 739.71,735.76 748.57,741.12 757.43,746.74 766.29,752.27 775.14,755.39 784.00,760.16 792.86,758.55 801.71,759.46 810.57,764.51 819.43,764.21 828.29,764.70 837.14,764.22 846.00,765.69 854.86,767.88 863.71,767.30 872.57,769.32 881.43,769.84 890.29,767.34 899.14,770.75 908.00,770.65 916.86,771.41 925.71,768.24 934.57,770.45 943.43,770.88 952.29,771.63 961.14,772.59 970.00,772.77 978.86,771.61 987.71,770.99 996.57,774.20 1005.43,776.00 1014.29,774.54 1023.14,772.84 1032.00,774.17"/>
<text x="1040" y="628" text-anchor="end" font-size="11" font-family="Arial, sans-serif" fill="#6a7478">min 4.1168</text>
<text x="1040" y="644" text-anchor="end" font-size="11" font-family="Arial, sans-serif" fill="#6a7478">last 4.2032</text>
</svg>