<svg xmlns="http://www.w3.org/2000/svg" width="980" height="700" viewBox="0 0 980 700" role="img">
<rect width="100%" height="100%" fill="#fcfbf7"/>
<text x="36" y="40" font-size="24" font-family="Arial, sans-serif" fill="#1d2a2f">MpraVAE Semantic Sequence Space</text>
<text x="36" y="64" font-size="12" font-family="Arial, sans-serif" fill="#5b666b">Dependency-light sequence-space reconstruction using PCA on 4-mer frequency vectors.</text>
<rect x="110" y="110" width="700" height="470" rx="8" fill="#fffdf8" stroke="#ddd7cb"/>
<line x1="110" y1="349.79" x2="810" y2="349.79" stroke="#ddd7cb" stroke-dasharray="4 4"/>
<line x1="365.60" y1="110" x2="365.60" y2="580" stroke="#ddd7cb" stroke-dasharray="4 4"/>
<circle cx="415.26" cy="412.72" r="3.0" fill="#4f6d7a" opacity="0.55"/>
<circle cx="430.84" cy="444.75" r="3.0" fill="#4f6d7a" opacity="0.55"/>
<circle cx="121.27" cy="381.46" r="3.0" fill="#4f6d7a" opacity="0.55"/>
<circle cx="569.17" cy="329.56" r="3.0" fill="#4f6d7a" opacity="0.55"/>
<circle cx="306.12" cy="447.24" r="3.0" fill="#4f6d7a" opacity="0.55"/>
<circle cx="303.28" cy="473.84" r="3.0" fill="#4f6d7a" opacity="0.55"/>
<circle cx="198.77" cy="330.40" r="3.0" fill="#4f6d7a" opacity="0.55"/>
<circle cx="359.98" cy="345.39" r="3.0" fill="#4f6d7a" opacity="0.55"/>
<circle cx="470.30" cy="295.31" r="3.0" fill="#4f6d7a" opacity="0.55"/>
<circle cx="357.36" cy="485.95" r="3.0" fill="#4f6d7a" opacity="0.55"/>
<circle cx="224.81" cy="271.79" r="3.0" fill="#4f6d7a" opacity="0.55"/>
<circle cx="230.76" cy="299.32" r="3.0" fill="#4f6d7a" opacity="0.55"/>
<circle cx="372.37" cy="349.87" r="3.0" fill="#4f6d7a" opacity="0.55"/>
<circle cx="634.10" cy="489.53" r="3.0" fill="#4f6d7a" opacity="0.55"/>
<circle cx="230.20" cy="248.55" r="3.0" fill="#4f6d7a" opacity="0.55"/>
<circle cx="216.94" cy="304.21" r="3.0" fill="#4f6d7a" opacity="0.55"/>
<circle cx="601.85" cy="336.65" r="3.0" fill="#4f6d7a" opacity="0.55"/>
<circle cx="171.62" cy="440.93" r="3.0" fill="#4f6d7a" opacity="0.55"/>
<circle cx="231.39" cy="375.75" r="3.0" fill="#4f6d7a" opacity="0.55"/>
<circle cx="423.05" cy="350.50" r="3.0" fill="#4f6d7a" opacity="0.55"/>
<circle cx="342.93" cy="180.58" r="3.0" fill="#4f6d7a" opacity="0.55"/>
<circle cx="482.57" cy="476.39" r="3.0" fill="#4f6d7a" opacity="0.55"/>
<circle cx="359.68" cy="371.62" r="3.0" fill="#4f6d7a" opacity="0.55"/>
<circle cx="525.49" cy="397.47" r="3.0" fill="#4f6d7a" opacity="0.55"/>
<circle cx="250.84" cy="453.32" r="3.0" fill="#4f6d7a" opacity="0.55"/>
<circle cx="212.01" cy="349.43" r="3.0" fill="#4f6d7a" opacity="0.55"/>
<circle cx="270.53" cy="383.05" r="3.0" fill="#4f6d7a" opacity="0.55"/>
<circle cx="287.39" cy="294.66" r="3.0" fill="#4f6d7a" opacity="0.55"/>
<circle cx="635.05" cy="576.04" r="3.0" fill="#4f6d7a" opacity="0.55"/>
<circle cx="242.76" cy="345.68" r="3.0" fill="#4f6d7a" opacity="0.55"/>
<circle cx="279.16" cy="388.69" r="3.0" fill="#4f6d7a" opacity="0.55"/>
<circle cx="810.00" cy="541.06" r="3.0" fill="#4f6d7a" opacity="0.55"/>
<circle cx="187.12" cy="416.80" r="3.0" fill="#4f6d7a" opacity="0.55"/>
<circle cx="202.91" cy="374.73" r="3.0" fill="#4f6d7a" opacity="0.55"/>
<circle cx="476.53" cy="384.63" r="3.0" fill="#4f6d7a" opacity="0.55"/>
<circle cx="445.73" cy="156.15" r="3.0" fill="#4f6d7a" opacity="0.55"/>
<circle cx="231.51" cy="276.10" r="3.0" fill="#4f6d7a" opacity="0.55"/>
<circle cx="210.39" cy="438.23" r="3.0" fill="#4f6d7a" opacity="0.55"/>
<circle cx="308.95" cy="367.86" r="3.0" fill="#4f6d7a" opacity="0.55"/>
<circle cx="371.74" cy="274.00" r="3.0" fill="#4f6d7a" opacity="0.55"/>
<circle cx="390.30" cy="330.14" r="3.0" fill="#4f6d7a" opacity="0.55"/>
<circle cx="538.17" cy="356.14" r="3.0" fill="#4f6d7a" opacity="0.55"/>
<circle cx="305.58" cy="284.32" r="3.0" fill="#4f6d7a" opacity="0.55"/>
<circle cx="412.70" cy="315.04" r="3.0" fill="#4f6d7a" opacity="0.55"/>
<circle cx="395.88" cy="319.19" r="3.0" fill="#4f6d7a" opacity="0.55"/>
<circle cx="366.21" cy="359.54" r="3.0" fill="#4f6d7a" opacity="0.55"/>
<circle cx="166.99" cy="380.28" r="3.0" fill="#4f6d7a" opacity="0.55"/>
<circle cx="443.18" cy="279.02" r="3.0" fill="#4f6d7a" opacity="0.55"/>
<circle cx="517.28" cy="300.15" r="3.0" fill="#4f6d7a" opacity="0.55"/>
<circle cx="373.92" cy="413.13" r="3.0" fill="#4f6d7a" opacity="0.55"/>
<circle cx="301.55" cy="269.39" r="3.0" fill="#4f6d7a" opacity="0.55"/>
<circle cx="182.41" cy="300.71" r="3.0" fill="#4f6d7a" opacity="0.55"/>
<circle cx="530.75" cy="339.62" r="3.0" fill="#4f6d7a" opacity="0.55"/>
<circle cx="451.90" cy="480.29" r="3.0" fill="#4f6d7a" opacity="0.55"/>
<circle cx="282.55" cy="390.80" r="3.0" fill="#4f6d7a" opacity="0.55"/>
<circle cx="243.88" cy="345.87" r="3.0" fill="#4f6d7a" opacity="0.55"/>
<circle cx="638.84" cy="212.43" r="3.0" fill="#4f6d7a" opacity="0.55"/>
<circle cx="373.55" cy="259.12" r="3.0" fill="#4f6d7a" opacity="0.55"/>
<circle cx="505.57" cy="424.96" r="3.0" fill="#4f6d7a" opacity="0.55"/>
<circle cx="171.71" cy="418.63" r="3.0" fill="#4f6d7a" opacity="0.55"/>
<circle cx="475.43" cy="146.86" r="3.0" fill="#4f6d7a" opacity="0.55"/>
<circle cx="188.36" cy="361.58" r="3.0" fill="#4f6d7a" opacity="0.55"/>
<circle cx="214.08" cy="243.03" r="3.0" fill="#4f6d7a" opacity="0.55"/>
<circle cx="499.78" cy="344.40" r="3.0" fill="#4f6d7a" opacity="0.55"/>
<circle cx="511.74" cy="244.80" r="3.0" fill="#4f6d7a" opacity="0.55"/>
<circle cx="333.21" cy="415.44" r="3.0" fill="#4f6d7a" opacity="0.55"/>
<circle cx="249.62" cy="379.51" r="3.0" fill="#4f6d7a" opacity="0.55"/>
<circle cx="237.61" cy="464.18" r="3.0" fill="#4f6d7a" opacity="0.55"/>
<circle cx="231.34" cy="401.79" r="3.0" fill="#4f6d7a" opacity="0.55"/>
<circle cx="318.95" cy="303.70" r="3.0" fill="#4f6d7a" opacity="0.55"/>
<circle cx="313.47" cy="357.96" r="3.0" fill="#4f6d7a" opacity="0.55"/>
<circle cx="187.87" cy="425.05" r="3.0" fill="#4f6d7a" opacity="0.55"/>
<circle cx="328.58" cy="410.64" r="3.0" fill="#4f6d7a" opacity="0.55"/>
<circle cx="257.98" cy="411.19" r="3.0" fill="#4f6d7a" opacity="0.55"/>
<circle cx="434.02" cy="190.37" r="3.0" fill="#4f6d7a" opacity="0.55"/>
<circle cx="521.60" cy="422.56" r="3.0" fill="#4f6d7a" opacity="0.55"/>
<circle cx="300.12" cy="381.11" r="3.0" fill="#4f6d7a" opacity="0.55"/>
<circle cx="441.62" cy="405.59" r="3.0" fill="#4f6d7a" opacity="0.55"/>
<circle cx="369.50" cy="381.86" r="3.0" fill="#4f6d7a" opacity="0.55"/>
<circle cx="110.00" cy="401.71" r="3.0" fill="#4f6d7a" opacity="0.55"/>
<circle cx="305.88" cy="303.75" r="3.0" fill="#4f6d7a" opacity="0.55"/>
<circle cx="413.57" cy="406.88" r="3.0" fill="#4f6d7a" opacity="0.55"/>
<circle cx="167.62" cy="301.08" r="3.0" fill="#4f6d7a" opacity="0.55"/>
<circle cx="600.90" cy="189.51" r="3.0" fill="#4f6d7a" opacity="0.55"/>
<circle cx="446.10" cy="289.26" r="3.0" fill="#4f6d7a" opacity="0.55"/>
<circle cx="304.57" cy="392.15" r="3.0" fill="#4f6d7a" opacity="0.55"/>
<circle cx="175.94" cy="288.72" r="3.0" fill="#4f6d7a" opacity="0.55"/>
<circle cx="445.16" cy="378.64" r="3.0" fill="#4f6d7a" opacity="0.55"/>
<circle cx="539.70" cy="289.60" r="3.0" fill="#4f6d7a" opacity="0.55"/>
<circle cx="416.74" cy="368.21" r="3.0" fill="#4f6d7a" opacity="0.55"/>
<circle cx="418.85" cy="358.47" r="3.0" fill="#4f6d7a" opacity="0.55"/>
<circle cx="398.92" cy="382.16" r="3.0" fill="#4f6d7a" opacity="0.55"/>
<circle cx="268.29" cy="420.05" r="3.0" fill="#4f6d7a" opacity="0.55"/>
<circle cx="308.06" cy="404.41" r="3.0" fill="#4f6d7a" opacity="0.55"/>
<circle cx="357.53" cy="397.38" r="3.0" fill="#4f6d7a" opacity="0.55"/>
<circle cx="274.83" cy="334.05" r="3.0" fill="#4f6d7a" opacity="0.55"/>
<circle cx="273.90" cy="433.48" r="3.0" fill="#4f6d7a" opacity="0.55"/>
<circle cx="644.45" cy="580.00" r="3.0" fill="#4f6d7a" opacity="0.55"/>
<circle cx="464.35" cy="290.81" r="3.0" fill="#4f6d7a" opacity="0.55"/>
<circle cx="180.02" cy="431.80" r="3.0" fill="#4f6d7a" opacity="0.55"/>
<circle cx="460.87" cy="345.29" r="3.0" fill="#4f6d7a" opacity="0.55"/>
<circle cx="160.95" cy="309.46" r="3.0" fill="#4f6d7a" opacity="0.55"/>
<circle cx="244.37" cy="421.78" r="3.0" fill="#4f6d7a" opacity="0.55"/>
<circle cx="517.02" cy="281.63" r="3.0" fill="#4f6d7a" opacity="0.55"/>
<circle cx="285.52" cy="344.64" r="3.0" fill="#4f6d7a" opacity="0.55"/>
<circle cx="727.21" cy="366.81" r="3.0" fill="#4f6d7a" opacity="0.55"/>
<circle cx="388.62" cy="308.36" r="3.0" fill="#4f6d7a" opacity="0.55"/>
<circle cx="537.04" cy="400.58" r="3.0" fill="#4f6d7a" opacity="0.55"/>
<circle cx="415.88" cy="370.73" r="3.0" fill="#4f6d7a" opacity="0.55"/>
<circle cx="519.79" cy="182.63" r="3.0" fill="#4f6d7a" opacity="0.55"/>
<circle cx="207.09" cy="405.67" r="3.0" fill="#4f6d7a" opacity="0.55"/>
<circle cx="189.58" cy="341.46" r="3.0" fill="#4f6d7a" opacity="0.55"/>
<circle cx="152.33" cy="394.03" r="3.0" fill="#4f6d7a" opacity="0.55"/>
<circle cx="571.89" cy="186.01" r="3.0" fill="#4f6d7a" opacity="0.55"/>
<circle cx="407.46" cy="481.45" r="3.0" fill="#4f6d7a" opacity="0.55"/>
<circle cx="354.16" cy="304.90" r="3.0" fill="#4f6d7a" opacity="0.55"/>
<circle cx="676.85" cy="404.71" r="3.0" fill="#4f6d7a" opacity="0.55"/>
<circle cx="421.07" cy="306.91" r="3.0" fill="#4f6d7a" opacity="0.55"/>
<circle cx="289.98" cy="226.59" r="3.0" fill="#4f6d7a" opacity="0.55"/>
<circle cx="425.75" cy="270.92" r="3.0" fill="#4f6d7a" opacity="0.55"/>
<circle cx="401.87" cy="444.73" r="3.0" fill="#4f6d7a" opacity="0.55"/>
<circle cx="219.64" cy="378.77" r="3.0" fill="#4f6d7a" opacity="0.55"/>
<circle cx="272.02" cy="417.79" r="3.0" fill="#4f6d7a" opacity="0.55"/>
<circle cx="335.49" cy="320.56" r="3.0" fill="#4f6d7a" opacity="0.55"/>
<circle cx="575.81" cy="249.61" r="3.0" fill="#4f6d7a" opacity="0.55"/>
<circle cx="662.29" cy="370.62" r="3.0" fill="#4f6d7a" opacity="0.55"/>
<circle cx="239.16" cy="451.12" r="3.0" fill="#4f6d7a" opacity="0.55"/>
<circle cx="435.35" cy="259.04" r="3.0" fill="#4f6d7a" opacity="0.55"/>
<circle cx="184.42" cy="415.43" r="3.0" fill="#4f6d7a" opacity="0.55"/>
<circle cx="283.83" cy="342.07" r="3.0" fill="#4f6d7a" opacity="0.55"/>
<circle cx="568.84" cy="394.20" r="3.0" fill="#4f6d7a" opacity="0.55"/>
<circle cx="281.44" cy="334.75" r="3.0" fill="#4f6d7a" opacity="0.55"/>
<circle cx="541.94" cy="305.54" r="3.0" fill="#4f6d7a" opacity="0.55"/>
<circle cx="529.12" cy="276.04" r="3.0" fill="#4f6d7a" opacity="0.55"/>
<circle cx="320.30" cy="232.77" r="3.0" fill="#4f6d7a" opacity="0.55"/>
<circle cx="196.30" cy="321.43" r="3.0" fill="#4f6d7a" opacity="0.55"/>
<circle cx="381.41" cy="290.15" r="3.0" fill="#4f6d7a" opacity="0.55"/>
<circle cx="447.30" cy="259.11" r="3.0" fill="#4f6d7a" opacity="0.55"/>
<circle cx="394.55" cy="341.56" r="3.0" fill="#4f6d7a" opacity="0.55"/>
<circle cx="635.26" cy="341.48" r="3.0" fill="#4f6d7a" opacity="0.55"/>
<circle cx="558.13" cy="504.22" r="3.0" fill="#4f6d7a" opacity="0.55"/>
<circle cx="227.20" cy="251.47" r="3.0" fill="#4f6d7a" opacity="0.55"/>
<circle cx="229.11" cy="341.65" r="3.0" fill="#4f6d7a" opacity="0.55"/>
<circle cx="463.02" cy="355.23" r="3.0" fill="#4f6d7a" opacity="0.55"/>
<circle cx="309.25" cy="359.63" r="3.0" fill="#4f6d7a" opacity="0.55"/>
<circle cx="430.77" cy="342.87" r="3.0" fill="#4f6d7a" opacity="0.55"/>
<circle cx="285.63" cy="414.91" r="3.0" fill="#4f6d7a" opacity="0.55"/>
<circle cx="209.32" cy="357.24" r="3.0" fill="#4f6d7a" opacity="0.55"/>
<circle cx="358.62" cy="395.57" r="3.0" fill="#4f6d7a" opacity="0.55"/>
<circle cx="287.74" cy="313.95" r="3.0" fill="#4f6d7a" opacity="0.55"/>
<circle cx="477.81" cy="537.33" r="3.0" fill="#4f6d7a" opacity="0.55"/>
<circle cx="385.79" cy="445.58" r="3.0" fill="#4f6d7a" opacity="0.55"/>
<circle cx="360.54" cy="339.75" r="3.0" fill="#4f6d7a" opacity="0.55"/>
<circle cx="282.05" cy="354.51" r="3.0" fill="#4f6d7a" opacity="0.55"/>
<circle cx="550.12" cy="413.73" r="3.0" fill="#4f6d7a" opacity="0.55"/>
<circle cx="339.27" cy="348.37" r="3.0" fill="#4f6d7a" opacity="0.55"/>
<circle cx="407.19" cy="416.82" r="3.0" fill="#4f6d7a" opacity="0.55"/>
<circle cx="416.81" cy="383.10" r="3.0" fill="#4f6d7a" opacity="0.55"/>
<circle cx="265.12" cy="344.78" r="3.0" fill="#4f6d7a" opacity="0.55"/>
<circle cx="250.26" cy="386.46" r="3.0" fill="#4f6d7a" opacity="0.55"/>
<circle cx="332.55" cy="388.11" r="3.0" fill="#4f6d7a" opacity="0.55"/>
<circle cx="452.04" cy="502.40" r="3.0" fill="#4f6d7a" opacity="0.55"/>
<circle cx="137.01" cy="372.26" r="3.0" fill="#4f6d7a" opacity="0.55"/>
<circle cx="214.09" cy="332.23" r="3.0" fill="#4f6d7a" opacity="0.55"/>
<circle cx="303.72" cy="390.16" r="3.0" fill="#4f6d7a" opacity="0.55"/>
<circle cx="260.63" cy="334.15" r="3.0" fill="#4f6d7a" opacity="0.55"/>
<circle cx="502.47" cy="345.80" r="3.0" fill="#4f6d7a" opacity="0.55"/>
<circle cx="305.19" cy="268.35" r="3.0" fill="#4f6d7a" opacity="0.55"/>
<circle cx="241.13" cy="314.44" r="3.0" fill="#4f6d7a" opacity="0.55"/>
<circle cx="340.07" cy="353.85" r="3.0" fill="#4f6d7a" opacity="0.55"/>
<circle cx="649.39" cy="369.93" r="3.0" fill="#4f6d7a" opacity="0.55"/>
<circle cx="304.09" cy="263.04" r="3.0" fill="#4f6d7a" opacity="0.55"/>
<circle cx="263.40" cy="326.99" r="3.0" fill="#4f6d7a" opacity="0.55"/>
<circle cx="619.23" cy="388.48" r="3.0" fill="#4f6d7a" opacity="0.55"/>
<circle cx="371.70" cy="315.45" r="3.0" fill="#4f6d7a" opacity="0.55"/>
<circle cx="382.74" cy="325.56" r="3.0" fill="#4f6d7a" opacity="0.55"/>
<circle cx="428.52" cy="258.85" r="3.0" fill="#4f6d7a" opacity="0.55"/>
<circle cx="311.59" cy="312.65" r="3.0" fill="#4f6d7a" opacity="0.55"/>
<circle cx="400.57" cy="273.54" r="3.0" fill="#4f6d7a" opacity="0.55"/>
<circle cx="439.42" cy="200.36" r="3.0" fill="#4f6d7a" opacity="0.55"/>
<circle cx="225.82" cy="365.94" r="3.0" fill="#4f6d7a" opacity="0.55"/>
<circle cx="412.08" cy="436.59" r="3.0" fill="#4f6d7a" opacity="0.55"/>
<circle cx="292.74" cy="295.32" r="3.0" fill="#4f6d7a" opacity="0.55"/>
<circle cx="348.91" cy="549.20" r="3.0" fill="#4f6d7a" opacity="0.55"/>
<circle cx="429.50" cy="320.13" r="3.0" fill="#4f6d7a" opacity="0.55"/>
<circle cx="261.16" cy="314.93" r="3.0" fill="#4f6d7a" opacity="0.55"/>
<circle cx="459.20" cy="348.53" r="3.0" fill="#4f6d7a" opacity="0.55"/>
<circle cx="327.81" cy="396.57" r="3.0" fill="#4f6d7a" opacity="0.55"/>
<circle cx="153.32" cy="395.51" r="3.0" fill="#4f6d7a" opacity="0.55"/>
<circle cx="461.95" cy="343.82" r="3.0" fill="#4f6d7a" opacity="0.55"/>
<circle cx="141.72" cy="373.02" r="3.0" fill="#4f6d7a" opacity="0.55"/>
<circle cx="568.69" cy="110.00" r="3.0" fill="#4f6d7a" opacity="0.55"/>
<circle cx="297.65" cy="322.37" r="3.0" fill="#4f6d7a" opacity="0.55"/>
<circle cx="467.76" cy="358.35" r="3.0" fill="#4f6d7a" opacity="0.55"/>
<circle cx="298.69" cy="277.52" r="3.0" fill="#4f6d7a" opacity="0.55"/>
<circle cx="257.52" cy="328.11" r="3.0" fill="#4f6d7a" opacity="0.55"/>
<circle cx="238.73" cy="315.37" r="3.0" fill="#4f6d7a" opacity="0.55"/>
<circle cx="464.47" cy="348.46" r="3.0" fill="#4f6d7a" opacity="0.55"/>
<circle cx="232.45" cy="352.19" r="3.0" fill="#4f6d7a" opacity="0.55"/>
<circle cx="594.65" cy="303.90" r="3.0" fill="#4f6d7a" opacity="0.55"/>
<circle cx="486.64" cy="298.34" r="3.0" fill="#4f6d7a" opacity="0.55"/>
<circle cx="554.08" cy="128.11" r="3.0" fill="#4f6d7a" opacity="0.55"/>
<circle cx="422.74" cy="330.11" r="3.0" fill="#4f6d7a" opacity="0.55"/>
<circle cx="264.74" cy="224.21" r="3.0" fill="#4f6d7a" opacity="0.55"/>
<circle cx="468.67" cy="495.82" r="3.0" fill="#4f6d7a" opacity="0.55"/>
<circle cx="335.16" cy="473.36" r="3.0" fill="#4f6d7a" opacity="0.55"/>
<circle cx="462.88" cy="246.09" r="3.0" fill="#4f6d7a" opacity="0.55"/>
<circle cx="661.12" cy="461.99" r="3.0" fill="#4f6d7a" opacity="0.55"/>
<circle cx="313.77" cy="461.66" r="3.0" fill="#4f6d7a" opacity="0.55"/>
<circle cx="477.50" cy="307.51" r="3.0" fill="#4f6d7a" opacity="0.55"/>
<circle cx="246.04" cy="343.80" r="3.0" fill="#4f6d7a" opacity="0.55"/>
<circle cx="239.76" cy="385.41" r="3.0" fill="#4f6d7a" opacity="0.55"/>
<circle cx="130.02" cy="389.39" r="3.0" fill="#4f6d7a" opacity="0.55"/>
<circle cx="261.02" cy="295.00" r="3.0" fill="#4f6d7a" opacity="0.55"/>
<circle cx="251.16" cy="378.81" r="3.0" fill="#4f6d7a" opacity="0.55"/>
<circle cx="520.84" cy="396.73" r="3.0" fill="#4f6d7a" opacity="0.55"/>
<circle cx="457.36" cy="238.38" r="3.0" fill="#4f6d7a" opacity="0.55"/>
<circle cx="245.84" cy="322.20" r="3.0" fill="#4f6d7a" opacity="0.55"/>
<circle cx="270.77" cy="298.05" r="3.0" fill="#4f6d7a" opacity="0.55"/>
<circle cx="226.22" cy="387.42" r="3.0" fill="#4f6d7a" opacity="0.55"/>
<circle cx="488.11" cy="293.75" r="3.0" fill="#c85c38" opacity="0.55"/>
<circle cx="503.82" cy="250.40" r="3.0" fill="#c85c38" opacity="0.55"/>
<circle cx="298.74" cy="291.42" r="3.0" fill="#c85c38" opacity="0.55"/>
<circle cx="522.15" cy="308.78" r="3.0" fill="#c85c38" opacity="0.55"/>
<circle cx="273.42" cy="237.26" r="3.0" fill="#c85c38" opacity="0.55"/>
<circle cx="503.52" cy="359.57" r="3.0" fill="#c85c38" opacity="0.55"/>
<circle cx="448.36" cy="325.93" r="3.0" fill="#c85c38" opacity="0.55"/>
<circle cx="258.71" cy="265.14" r="3.0" fill="#c85c38" opacity="0.55"/>
<circle cx="458.18" cy="360.72" r="3.0" fill="#c85c38" opacity="0.55"/>
<circle cx="233.37" cy="361.91" r="3.0" fill="#c85c38" opacity="0.55"/>
<circle cx="592.05" cy="347.74" r="3.0" fill="#c85c38" opacity="0.55"/>
<circle cx="406.73" cy="481.74" r="3.0" fill="#c85c38" opacity="0.55"/>
<circle cx="534.14" cy="464.45" r="3.0" fill="#c85c38" opacity="0.55"/>
<circle cx="268.15" cy="339.25" r="3.0" fill="#c85c38" opacity="0.55"/>
<circle cx="413.00" cy="329.50" r="3.0" fill="#c85c38" opacity="0.55"/>
<circle cx="302.23" cy="315.49" r="3.0" fill="#c85c38" opacity="0.55"/>
<circle cx="221.20" cy="295.56" r="3.0" fill="#c85c38" opacity="0.55"/>
<circle cx="302.03" cy="259.38" r="3.0" fill="#c85c38" opacity="0.55"/>
<circle cx="457.45" cy="463.88" r="3.0" fill="#c85c38" opacity="0.55"/>
<circle cx="288.37" cy="262.89" r="3.0" fill="#c85c38" opacity="0.55"/>
<circle cx="363.50" cy="351.53" r="7" fill="#2f4b57" stroke="#ffffff" stroke-width="2"/>
<text x="375.50" y="341.53" font-size="11" font-family="Arial, sans-serif" fill="#33454d">Natural centroid</text>
<circle cx="388.69" cy="330.74" r="7" fill="#9d4224" stroke="#ffffff" stroke-width="2"/>
<text x="400.69" y="320.74" font-size="11" font-family="Arial, sans-serif" fill="#33454d">Generated centroid</text>
<text x="836" y="128" font-size="13" font-family="Arial, sans-serif" fill="#33454d">Groups</text>
<circle cx="844" cy="148" r="5" fill="#4f6d7a" opacity="0.7"/>
<text x="860" y="152" font-size="11" font-family="Arial, sans-serif" fill="#33454d">Natural promoters (n=220)</text>
<circle cx="844" cy="174" r="5" fill="#c85c38" opacity="0.7"/>
<text x="860" y="178" font-size="11" font-family="Arial, sans-serif" fill="#33454d">Generated promoters (n=20)</text>
<text x="836" y="222" font-size="13" font-family="Arial, sans-serif" fill="#33454d">Embedding summary</text>
<text x="836" y="246" font-size="11" font-family="Arial, sans-serif" fill="#5b666b">PC1 variance 14.1%</text>
<text x="836" y="266" font-size="11" font-family="Arial, sans-serif" fill="#5b666b">PC2 variance 8.6%</text>
<text x="836" y="286" font-size="11" font-family="Arial, sans-serif" fill="#5b666b">Mean 4-mer Pearson r 0.776</text>
<text x="836" y="306" font-size="11" font-family="Arial, sans-serif" fill="#5b666b">Interpretation goal: inspect manifold overlap</text>
<text x="460.0" y="622" text-anchor="middle" font-size="12" font-family="Arial, sans-serif" fill="#33454d">Principal component 1</text>
<text x="42" y="345.0" font-size="12" font-family="Arial, sans-serif" fill="#33454d">Principal component 2</text>
<text x="110" y="672" font-size="11" font-family="Arial, sans-serif" fill="#5b666b">This replaces the original ad hoc t-SNE script with a deterministic projection that is easier to reproduce inside the unified tool.</text>
</svg>