<svg xmlns="http://www.w3.org/2000/svg" width="1100" height="526" viewBox="0 0 1100 526" role="img">
<rect width="100%" height="100%" fill="#fcfbf7"/>
<text x="40" y="42" font-size="24" font-family="Arial, sans-serif" fill="#1d2a2f">Designed Candidate Comparison</text>
<text x="40" y="66" font-size="12" font-family="Arial, sans-serif" fill="#5b666b">Bars show target-tissue margin over the strongest competing tissue. Circles encode mutation burden.</text>
<line x1="330" y1="84" x2="950" y2="84" stroke="#c5bfb2"/>
<line x1="330" y1="92" x2="330" y2="494" stroke="#c5bfb2"/>
<line x1="640.0" y1="92" x2="640.0" y2="494" stroke="#e2ded5" stroke-dasharray="4 4"/>
<text x="640.0" y="74" text-anchor="middle" font-size="11" font-family="Arial, sans-serif" fill="#5b666b">target advantage</text>
<text x="42" y="117" font-size="12" font-family="Arial, sans-serif" fill="#22333b">tomato_promoter_1 #1</text>
<text x="42" y="134" font-size="11" font-family="Arial, sans-serif" fill="#7a5c2e">Baseline motif-preserving</text>
<rect x="640.0" y="100" width="294.0" height="24" rx="6" fill="#d97a34" opacity="0.9"/>
<text x="970" y="116" font-size="11" font-family="Arial, sans-serif" fill="#33454d">gap 5.038</text>
<text x="970" y="132" font-size="11" font-family="Arial, sans-serif" fill="#33454d">mut 17</text>
<circle cx="1070" cy="112" r="12.5" fill="#c94f4f" opacity="0.75"/>
<text x="42" y="173" font-size="12" font-family="Arial, sans-serif" fill="#22333b">tomato_promoter_1 #2</text>
<text x="42" y="190" font-size="11" font-family="Arial, sans-serif" fill="#7a5c2e">Baseline motif-preserving</text>
<rect x="640.0" y="156" width="222.9" height="24" rx="6" fill="#d97a34" opacity="0.9"/>
<text x="970" y="172" font-size="11" font-family="Arial, sans-serif" fill="#33454d">gap 3.820</text>
<text x="970" y="188" font-size="11" font-family="Arial, sans-serif" fill="#33454d">mut 18</text>
<circle cx="1070" cy="168" r="13.0" fill="#c94f4f" opacity="0.75"/>
<text x="42" y="229" font-size="12" font-family="Arial, sans-serif" fill="#22333b">tomato_promoter_1 #3</text>
<text x="42" y="246" font-size="11" font-family="Arial, sans-serif" fill="#7a5c2e">Baseline motif-preserving</text>
<rect x="640.0" y="212" width="223.5" height="24" rx="6" fill="#d97a34" opacity="0.9"/>
<text x="970" y="228" font-size="11" font-family="Arial, sans-serif" fill="#33454d">gap 3.831</text>
<text x="970" y="244" font-size="11" font-family="Arial, sans-serif" fill="#33454d">mut 16</text>
<circle cx="1070" cy="224" r="12.0" fill="#c94f4f" opacity="0.75"/>
<text x="42" y="285" font-size="12" font-family="Arial, sans-serif" fill="#22333b">tomato_promoter_2 #1</text>
<text x="42" y="302" font-size="11" font-family="Arial, sans-serif" fill="#7a5c2e">Baseline motif-preserving</text>
<rect x="640.0" y="268" width="191.2" height="24" rx="6" fill="#d97a34" opacity="0.9"/>
<text x="970" y="284" font-size="11" font-family="Arial, sans-serif" fill="#33454d">gap 3.276</text>
<text x="970" y="300" font-size="11" font-family="Arial, sans-serif" fill="#33454d">mut 24</text>
<circle cx="1070" cy="280" r="16.0" fill="#c94f4f" opacity="0.75"/>
<text x="42" y="341" font-size="12" font-family="Arial, sans-serif" fill="#22333b">tomato_promoter_2 #2</text>
<text x="42" y="358" font-size="11" font-family="Arial, sans-serif" fill="#7a5c2e">Baseline motif-preserving</text>
<rect x="640.0" y="324" width="62.1" height="24" rx="6" fill="#d97a34" opacity="0.9"/>
<text x="970" y="340" font-size="11" font-family="Arial, sans-serif" fill="#33454d">gap 1.065</text>
<text x="970" y="356" font-size="11" font-family="Arial, sans-serif" fill="#33454d">mut 18</text>
<circle cx="1070" cy="336" r="13.0" fill="#c94f4f" opacity="0.75"/>
<text x="42" y="397" font-size="12" font-family="Arial, sans-serif" fill="#22333b">tomato_promoter_2 #3</text>
<text x="42" y="414" font-size="11" font-family="Arial, sans-serif" fill="#7a5c2e">Baseline motif-preserving</text>
<rect x="640.0" y="380" width="61.8" height="24" rx="6" fill="#d97a34" opacity="0.9"/>
<text x="970" y="396" font-size="11" font-family="Arial, sans-serif" fill="#33454d">gap 1.059</text>
<text x="970" y="412" font-size="11" font-family="Arial, sans-serif" fill="#33454d">mut 13</text>
<circle cx="1070" cy="392" r="10.5" fill="#c94f4f" opacity="0.75"/>
</svg>