<svg xmlns="http://www.w3.org/2000/svg" width="980" height="660" viewBox="0 0 980 660" role="img">
<rect width="100%" height="100%" fill="#fcfbf7"/>
<text x="40" y="42" font-size="24" font-family="Arial, sans-serif" fill="#1d2a2f">DNABERT Motif Enrichment Summary</text>
<text x="40" y="66" font-size="12" font-family="Arial, sans-serif" fill="#5b666b">Top motifs ranked by enrichment ratio from attention-based motif post-processing.</text>
<text x="40" y="104" font-size="12" font-family="Arial, sans-serif" fill="#22333b">TACTT</text>
<rect x="220" y="88" width="500.0" height="20" rx="6" fill="rgb(135,157,64)" stroke="#d7d2c8"/>
<text x="732.0" y="102" font-size="11" font-family="Arial, sans-serif" fill="#33454d">ratio 0.4486 | n 1893 | q 1</text>
<text x="40" y="138" font-size="12" font-family="Arial, sans-serif" fill="#22333b">CTATT</text>
<rect x="220" y="122" width="341.6" height="20" rx="6" fill="rgb(169,185,121)" stroke="#d7d2c8"/>
<text x="573.6" y="136" font-size="11" font-family="Arial, sans-serif" fill="#33454d">ratio 0.3065 | n 1264 | q 1</text>
<text x="40" y="172" font-size="12" font-family="Arial, sans-serif" fill="#22333b">ATTTT</text>
<rect x="220" y="156" width="240.4" height="20" rx="6" fill="rgb(192,203,157)" stroke="#d7d2c8"/>
<text x="472.4" y="170" font-size="11" font-family="Arial, sans-serif" fill="#33454d">ratio 0.2157 | n 841 | q 1</text>
<text x="40" y="206" font-size="12" font-family="Arial, sans-serif" fill="#22333b">CAAAA</text>
<rect x="220" y="190" width="225.8" height="20" rx="6" fill="rgb(195,206,162)" stroke="#d7d2c8"/>
<text x="457.8" y="204" font-size="11" font-family="Arial, sans-serif" fill="#33454d">ratio 0.2026 | n 722 | q 1</text>
<text x="40" y="240" font-size="12" font-family="Arial, sans-serif" fill="#22333b">TTTAT</text>
<rect x="220" y="224" width="111.8" height="20" rx="6" fill="rgb(220,226,203)" stroke="#d7d2c8"/>
<text x="343.8" y="238" font-size="11" font-family="Arial, sans-serif" fill="#33454d">ratio 0.1003 | n 384 | q 1</text>
<text x="40" y="274" font-size="12" font-family="Arial, sans-serif" fill="#22333b">GACGG</text>
<rect x="220" y="258" width="70.9" height="20" rx="6" fill="rgb(229,234,218)" stroke="#d7d2c8"/>
<text x="302.9" y="272" font-size="11" font-family="Arial, sans-serif" fill="#33454d">ratio 0.0636 | n 65 | q 1</text>
<text x="40" y="308" font-size="12" font-family="Arial, sans-serif" fill="#22333b">TCTTA</text>
<rect x="220" y="292" width="62.0" height="20" rx="6" fill="rgb(231,235,221)" stroke="#d7d2c8"/>
<text x="294.0" y="306" font-size="11" font-family="Arial, sans-serif" fill="#33454d">ratio 0.0557 | n 182 | q 1</text>
<text x="40" y="342" font-size="12" font-family="Arial, sans-serif" fill="#22333b">ACTAG</text>
<rect x="220" y="326" width="58.9" height="20" rx="6" fill="rgb(232,236,222)" stroke="#d7d2c8"/>
<text x="290.9" y="340" font-size="11" font-family="Arial, sans-serif" fill="#33454d">ratio 0.0528 | n 145 | q 1</text>
<text x="40" y="376" font-size="12" font-family="Arial, sans-serif" fill="#22333b">TATGC</text>
<rect x="220" y="360" width="56.9" height="20" rx="6" fill="rgb(232,236,223)" stroke="#d7d2c8"/>
<text x="288.9" y="374" font-size="11" font-family="Arial, sans-serif" fill="#33454d">ratio 0.0510 | n 110 | q 1</text>
<text x="40" y="410" font-size="12" font-family="Arial, sans-serif" fill="#22333b">TCCGA</text>
<rect x="220" y="394" width="53.7" height="20" rx="6" fill="rgb(233,237,224)" stroke="#d7d2c8"/>
<text x="285.7" y="408" font-size="11" font-family="Arial, sans-serif" fill="#33454d">ratio 0.0482 | n 111 | q 1</text>
<text x="40" y="444" font-size="12" font-family="Arial, sans-serif" fill="#22333b">CACAT</text>
<rect x="220" y="428" width="49.6" height="20" rx="6" fill="rgb(234,238,226)" stroke="#d7d2c8"/>
<text x="281.6" y="442" font-size="11" font-family="Arial, sans-serif" fill="#33454d">ratio 0.0445 | n 92 | q 1</text>
<text x="40" y="478" font-size="12" font-family="Arial, sans-serif" fill="#22333b">GGGTG</text>
<rect x="220" y="462" width="49.4" height="20" rx="6" fill="rgb(234,238,226)" stroke="#d7d2c8"/>
<text x="281.4" y="476" font-size="11" font-family="Arial, sans-serif" fill="#33454d">ratio 0.0443 | n 108 | q 1</text>
<text x="40" y="512" font-size="12" font-family="Arial, sans-serif" fill="#22333b">GAATT</text>
<rect x="220" y="496" width="42.2" height="20" rx="6" fill="rgb(235,239,228)" stroke="#d7d2c8"/>
<text x="274.2" y="510" font-size="11" font-family="Arial, sans-serif" fill="#33454d">ratio 0.0379 | n 106 | q 1</text>
<text x="40" y="546" font-size="12" font-family="Arial, sans-serif" fill="#22333b">GCTTT</text>
<rect x="220" y="530" width="41.3" height="20" rx="6" fill="rgb(235,239,229)" stroke="#d7d2c8"/>
<text x="273.3" y="544" font-size="11" font-family="Arial, sans-serif" fill="#33454d">ratio 0.0371 | n 116 | q 1</text>
<text x="40" y="580" font-size="12" font-family="Arial, sans-serif" fill="#22333b">TTAAA</text>
<rect x="220" y="564" width="35.2" height="20" rx="6" fill="rgb(237,240,231)" stroke="#d7d2c8"/>
<text x="267.2" y="578" font-size="11" font-family="Arial, sans-serif" fill="#33454d">ratio 0.0315 | n 120 | q 1</text>
</svg>