<svg xmlns="http://www.w3.org/2000/svg" width="880" height="268" viewBox="0 0 880 268" role="img">
<rect width="100%" height="100%" fill="#fcfbf7"/>
<text x="40" y="42" font-size="24" font-family="Arial, sans-serif" fill="#1d2a2f">Predicted Tissue Activity Heatmap</text>
<text x="40" y="66" font-size="12" font-family="Arial, sans-serif" fill="#5b666b">Generated from prediction results for package reports and manuscript figures.</text>
<text x="275.0" y="74" text-anchor="middle" font-size="13" font-family="Arial, sans-serif" fill="#33454d">root</text>
<text x="405.0" y="74" text-anchor="middle" font-size="13" font-family="Arial, sans-serif" fill="#33454d">stem</text>
<text x="535.0" y="74" text-anchor="middle" font-size="13" font-family="Arial, sans-serif" fill="#33454d">leaf</text>
<text x="665.0" y="74" text-anchor="middle" font-size="13" font-family="Arial, sans-serif" fill="#33454d">fruit</text>
<text x="42" y="116" font-size="12" font-family="Arial, sans-serif" fill="#22333b">tomato_promoter_1</text>
<text x="42" y="132" font-size="11" font-family="Arial, sans-serif" fill="#7a5c2e">preferred: stem</text>
<rect x="210" y="92" width="120" height="38" rx="7" fill="rgb(136,158,66)" stroke="#d7d2c8"/>
<text x="270.0" y="116" text-anchor="middle" font-size="13" font-family="Arial, sans-serif" fill="#182126">1.936</text>
<rect x="340" y="92" width="120" height="38" rx="7" fill="rgb(135,157,64)" stroke="#d7d2c8"/>
<text x="400.0" y="116" text-anchor="middle" font-size="13" font-family="Arial, sans-serif" fill="#182126">1.955</text>
<rect x="470" y="92" width="120" height="38" rx="7" fill="rgb(145,165,80)" stroke="#d7d2c8"/>
<text x="530.0" y="116" text-anchor="middle" font-size="13" font-family="Arial, sans-serif" fill="#182126">1.850</text>
<rect x="600" y="92" width="120" height="38" rx="7" fill="rgb(153,171,93)" stroke="#d7d2c8"/>
<text x="660.0" y="116" text-anchor="middle" font-size="13" font-family="Arial, sans-serif" fill="#182126">1.766</text>
<text x="42" y="170" font-size="12" font-family="Arial, sans-serif" fill="#22333b">tomato_promoter_2</text>
<text x="42" y="186" font-size="11" font-family="Arial, sans-serif" fill="#7a5c2e">preferred: root</text>
<rect x="210" y="146" width="120" height="38" rx="7" fill="rgb(225,230,211)" stroke="#d7d2c8"/>
<text x="270.0" y="170" text-anchor="middle" font-size="13" font-family="Arial, sans-serif" fill="#182126">1.019</text>
<rect x="340" y="146" width="120" height="38" rx="7" fill="rgb(227,232,214)" stroke="#d7d2c8"/>
<text x="400.0" y="170" text-anchor="middle" font-size="13" font-family="Arial, sans-serif" fill="#182126">0.998</text>
<rect x="470" y="146" width="120" height="38" rx="7" fill="rgb(236,239,229)" stroke="#d7d2c8"/>
<text x="530.0" y="170" text-anchor="middle" font-size="13" font-family="Arial, sans-serif" fill="#182126">0.901</text>
<rect x="600" y="146" width="120" height="38" rx="7" fill="rgb(245,247,244)" stroke="#d7d2c8"/>
<text x="660.0" y="170" text-anchor="middle" font-size="13" font-family="Arial, sans-serif" fill="#182126">0.811</text>
</svg>